<svg width="135" height="81" viewBox="0 0 135 81" fill="none" xmlns="http://www.w3.org/2000/svg">
<path d="M55.5 19.142C59.6441 24.0103 62.3968 26.0014 68.5 27.5C73.2338 26.1131 75.9729 24.6242 81.0993 20C78.4855 18.783 76.099 17.7663 74 17.009C71.3247 16.0438 69.1165 15.5 67.5001 15.5C66.3023 15.5 64.7866 15.7839 63 16.3074C60.8612 16.9341 58.3343 17.9043 55.5 19.142Z" fill="#1C5964"/>
<path d="M60.5519 59.5C62.7598 69.819 65.3524 80.5 67.5001 80.5C69.7242 80.5 74.0638 69.3474 76.9852 58.5C73.298 63.364 71.2248 65.581 67.5001 66C64.4803 65.3203 63.0522 63.3233 60.5519 59.5Z" fill="#1C5964"/>
<path d="M39.0001 61L53.5001 32M39.0001 61L35.0001 74C34 78 35.0001 79.7708 38.0001 79.5C53.8611 78.0681 58.3345 72.2273 59.5001 54.5M39.0001 61C36.8651 61.7138 34.8756 62.2984 33 62.7492M53.5001 32L57.5001 47M53.5001 32L68.5 44L83.5 34M53.5001 32C53.256 30.2761 53.1027 28.8061 53.0652 27.5M59.5001 54.5C59.8379 56.1244 60.1897 57.8073 60.5519 59.5M59.5001 54.5L57.5001 47M97.5 59.5L83.5 34M97.5 59.5C100.062 65.3845 101.365 68.8519 102.5 76.5C102.5 80.5 98.591 80.9729 94.5 79.5C79.5956 75.359 75.4463 70.276 78 54.5M97.5 59.5C99.254 60.5928 100.912 61.5113 102.5 62.259M83.5 34L80.0122 47M83.5 34C83.8119 32.0538 83.9887 30.421 84.0258 29M78 54.5C77.688 55.8141 77.3475 57.1547 76.9852 58.5M78 54.5L80.0122 47M55.5 19.142C41.9239 25.0705 21.2963 37.1372 2.50008 47C0.34672 49.2235 0.413542 50.8434 3.50008 54.5C5.9236 56.4948 8.1743 58.157 10.3458 59.5M55.5 19.142C59.6441 24.0103 62.3968 26.0014 68.5 27.5C73.2338 26.1131 75.9729 24.6242 81.0993 20M55.5 19.142C53.6382 21.8631 52.9684 24.1384 53.0652 27.5M55.5 19.142C58.3343 17.9043 60.8612 16.9341 63 16.3074M81.0993 20C94.7335 26.3481 114.551 38.1455 132 47C134.433 49.4099 135.209 50.923 133.5 54.5C131.087 56.4319 128.855 58.1016 126.746 59.5M81.0993 20C83.1823 22.8044 84.1276 25.1081 84.0258 29M81.0993 20C78.4855 18.783 76.099 17.7663 74 17.009M60.5519 59.5C62.7598 69.819 65.3524 80.5 67.5001 80.5C69.7242 80.5 74.0638 69.3474 76.9852 58.5M60.5519 59.5C63.0522 63.3233 64.4803 65.3203 67.5001 66C71.2248 65.581 73.298 63.364 76.9852 58.5M57.5001 47L68.5 54.5L80.0122 47M126.746 59.5L105.386 44.25M126.746 59.5C118.007 65.2922 111.355 66.4298 102.5 62.259M84.0258 29L105.386 44.25M105.386 44.25C99.72 49.5431 98.5657 53.2788 102.5 62.259M10.3458 59.5L31.7055 43.5M10.3458 59.5C17.6147 63.9956 23.9958 64.9134 33 62.7492M53.0652 27.5L31.7055 43.5M31.7055 43.5C36.9466 50.6246 38.8245 54.712 33 62.7492M53.5001 1C49.5 5 49 12 53.5001 12C60.1667 12.012 62.4073 12.8779 63 16.3074M63 16.3074C64.7866 15.7839 66.3023 15.5 67.5001 15.5C69.1165 15.5 71.3247 16.0438 74 17.009M74 17.009C74 13.5 76.5 12 82 12C87.5 12 87.2366 7.32433 83.5 1" stroke="#1C5964"/>
</svg>
