<svg width="101" height="74" viewBox="0 0 101 74" fill="none" xmlns="http://www.w3.org/2000/svg">
<path d="M43.0006 71.5C38.8481 64.9973 33.5006 59 30.0006 59C26.5006 59 19.5006 62.5 17.0006 62.5C16.1987 62.5 15.3491 62.1665 14.5 61.6043C21.5 62 24 58 30.5 57.5C35.5 57.1154 39 64 43.5 69C45 70.5 43.7633 72.3371 43.0006 71.5Z" fill="#1C5964"/>
<path d="M70.5007 58.5C76.0005 58.5 79.0005 62.5 84.5006 62.5C85.345 62.1381 86.2767 61.427 87.2045 60.5C81 64.5 76.3021 57 71 57C65 57 61.5 61.5 57 70.5L58.0005 71.5C59.0615 69.9607 60.4301 67.7306 62.0005 65.5496C64.472 62.1169 67.4432 58.8057 70.5007 58.5Z" fill="#1C5964"/>
<path d="M7.50063 49.5C-1 49.5 1.5 44.5 0.500488 27M7.50063 49.5C8.22518 47.689 11.1999 45.1036 15.0005 42.3075M7.50063 49.5C6.67869 51.5545 10.5844 59.0117 14.5 61.6043M26.5006 1C31.2284 10.503 37.0006 22.5 37.0006 26.5C37.0006 27.5498 32.2222 30.7155 26.5006 34.4793M93.0006 49.5C102.501 48.5 97.5005 41.2203 100.001 27M93.0006 49.5C93.0006 47.5358 89.3019 44.4874 84.5006 41.2203M93.0006 49.5C93.0006 52.535 90.1221 57.5848 87.2045 60.5M73.5006 2C70.4197 8.25072 66.841 14.6518 64.7283 19.5M62.0005 65.5496C60.4301 67.7306 59.0615 69.9607 58.0005 71.5L57 70.5C61.5 61.5 65 57 71 57C76.3021 57 81 64.5 87.2045 60.5M62.0005 65.5496C64.472 62.1169 67.4432 58.8057 70.5007 58.5C76.0005 58.5 79.0005 62.5 84.5006 62.5C85.345 62.1381 86.2767 61.427 87.2045 60.5M62.0005 65.5496C69.4296 67.7596 79.0005 73 81.5005 73C83.5005 73 86.1043 72.0098 88.5005 69.5M75.0005 35.1489C68.8656 31.3452 63.4241 27.9817 63.0006 26.5C62.6077 25.1249 63.361 22.6376 64.7283 19.5M75.0005 35.1489C77.7864 31.3035 77.5664 27.7038 78 19.5M75.0005 35.1489C78.1817 37.1213 81.5494 39.2121 84.5006 41.2203M84.5006 41.2203C76 42.3075 73.5006 45.5 67.5005 44.5C64.4326 42.4885 63.8389 40.9133 63.0006 38M38.5 65.2941C28.9054 68.2412 23 73 19.5005 73C16.001 73 13.3768 71.1329 11.5005 69.5M15.0005 42.3075C22.2973 42.6487 30.0006 46 33.0005 44.5C34.5005 43.75 37.0732 40.5175 38.0005 37M15.0005 42.3075C18.504 39.7299 22.7094 36.9733 26.5006 34.4793M26.5006 34.4793C22.8272 33.883 22.079 29.9615 22.0005 19.5M35.5005 19.5C40.1277 16.6282 44.5005 16 44.5005 12C44.5005 9.5 42 6.5 40.5005 1M64.7283 19.5C60.5 16 55.0005 15.5 55.0005 12C55.0005 8.5 58.7013 6.69971 60.0005 1M14.5 61.6043C15.3491 62.1665 16.1987 62.5 17.0006 62.5C19.5006 62.5 26.5006 59 30.0006 59C33.5006 59 38.8481 64.9973 43.0006 71.5C43.7633 72.3371 45 70.5 43.5 69C39 64 35.5 57.1154 30.5 57.5C24 58 21.5 62 14.5 61.6043Z" stroke="#1C5964"/>
</svg>
