<svg width="101" height="107" viewBox="0 0 101 107" fill="none" xmlns="http://www.w3.org/2000/svg">
<path d="M53 28.9441C54.9096 29.0603 56.9125 29.398 59.001 29.9903C61.4302 30.6793 65.3795 34.0674 70 37.6554C64 31 65 25.5 71.7112 27.81C66.2361 24.9285 60.1161 21.7269 51.5 21.2229C49.6246 21.1133 47.631 21.1314 45.5 21.3084C64 21.3084 65 29.5 53 28.9441Z" fill="#1C5964"/>
<path d="M79.8199 25.7224C80.2254 23.9374 81.5929 22.4896 83.5033 22.4896C80.063 22.3773 76.5178 21.765 73.0242 21C77.9268 22.6583 80.2112 24 79.8199 25.7224Z" fill="#1C5964"/>
<path d="M84.0692 36.1995C84.7776 34.554 86.1756 33.1496 88.3874 32.4301C86.1762 32.7574 84.129 32.6361 82.1568 32.2113C84.0349 32.7787 84.6635 33.5014 84.0692 36.1995Z" fill="#1C5964"/>
<path d="M76.0107 30C78.0459 30.9642 80.0589 31.7595 82.1568 32.2113C84.129 32.6361 86.1762 32.7574 88.3874 32.4301C88.6904 32.3315 89.0087 32.2458 89.3426 32.1741C83.4116 32.9547 80.6027 30.7205 79.8854 28.2024C80.308 30.2934 79.1515 30.4645 76.0107 30Z" fill="#1C5964"/>
<path d="M78.7674 43.7378C86.4161 48.1366 94.4378 49.6669 100.001 39.9903C91.651 49.7811 85.1247 46.1374 83.766 41C84.9994 45.9958 83.2775 45.8223 78.7674 43.7378Z" fill="#1C5964"/>
<path fill-rule="evenodd" clip-rule="evenodd" d="M25 26.8732C30.9293 23.7993 37.9694 21.9341 45.5 21.3084C47.5334 18.1536 50.83 17.2165 54.8842 17.3753C59.1213 17.5414 64.1857 18.9045 69.5 20.1841C55.5 15.5 49.5 14 55.5 2C43.5 9.5 25 17 25 26.8732ZM50 8.5C48 8 31.5 19.6841 31.5 21C31.5 22.3159 43 20 44 19.5C45 19 52 16 52.5 15C53 14 52 9 50 8.5Z" fill="#1C5964"/>
<path d="M54.8842 17.3753C50.83 17.2165 47.5334 18.1536 45.5 21.3084C47.631 21.1314 49.6246 21.1133 51.5 21.2229C50.713 19.3346 51.335 17.5792 54.8842 17.3753Z" fill="#1C5964"/>
<path d="M34.5 80C33.5846 78.7795 28.7589 79.9797 24 81.1006C27.0565 81.3056 28.5482 81.8656 28.951 82.9222C28.9676 82.9477 28.9839 82.9736 29 83C29.368 83.604 29.2208 84.4021 28.6548 85.2677C28.3844 85.921 27.9901 86.6623 27.5 87.5C30.1136 86.8038 31.1933 87.2277 31.5 91.5C32.8619 90.9292 33.8093 91.0762 34.5576 92.8484C34.908 93.6782 35.2148 94.8644 35.5 96.5C37.0107 90.306 36.4539 82.6052 34.5 80Z" fill="#1C5964"/>
<path d="M16.5 101C25 100 29.2814 99.0629 28 105.5C31.2626 105.308 33.6156 102.355 34.9605 98.3684C35.1634 97.7671 35.3433 97.1424 35.5 96.5C34.54 98.2357 33.6507 99.4387 32.85 100.228C29.8617 103.175 28.1057 100.366 28.5 98C29 95 30 92.1287 31.5 91.5C31.1933 87.2277 30.1136 86.8038 27.5 87.5C26.224 88.4258 25.1305 89.2646 24.2029 90.0349C27.9069 87.1253 31.5 87 31 89.5C30.6527 91.2365 29.4492 92.5847 28 95C25.7566 98.7391 21.6333 100.623 20.5 98.5C19.1066 95.8898 19.709 93.7664 24.2029 90.0349C25.1305 89.2646 26.224 88.4258 27.5 87.5C22.3102 90.9902 19.0342 91.9022 12.7936 92.4291C19.2842 94.3714 21.7666 96.3227 16.5 101Z" fill="#1C5964"/>
<path d="M16 82.5C10.774 82.098 7.48046 81.5079 3.79708 78.8447C11.7387 85.7766 12.5411 89.3061 7.5 91C9.45968 91.5006 11.2413 91.9646 12.7936 92.4291C19.0342 91.9022 22.3102 90.9902 27.5 87.5C27.9901 86.6623 28.3844 85.921 28.6548 85.2677C26.8428 88.0383 20.7386 91.5 13.5 91.5C11.5 91.5 11.8175 89.9051 11.5 88C10.5 82 16.5161 83.6627 20 83C23.4476 82.3442 27.3715 80.5013 28.951 82.9222C28.5482 81.8656 27.0565 81.3056 24 81.1006C20.9607 81.8165 17.9487 82.5 16 82.5Z" fill="#1C5964"/>
<path fill-rule="evenodd" clip-rule="evenodd" d="M51.5386 34.6588C52.2637 49.0275 44.4629 49.8664 42 41C44.5 54.5 38 55 36 46C35.5 53.5 29.1051 50 31.3386 41.5C25.0901 54.1088 31.3424 70.441 57.001 61.4904C58.32 59.8557 59.6557 58.5049 61 57.3951C58 58 48.5 52 48.5 50C48.5 49.1218 51.0267 48.0203 52 46.5C53.2433 44.5578 52.5 43.1245 53.5 41.8725C54.5 40.6206 58.5 41.8725 58.5 41.8725C54.9001 40.0004 51.9093 37.7828 51.5386 34.6588ZM37 54C36 53 33 52.5 32.5 53.5C32 54.5 39 63.0096 40 62C41 60.9904 38 55 37 54ZM44.5 52C43.5 52 42 53.5 41.5 55C41 56.5 43 62 45 62.5C47 63 55.5 60 55.5 59C55.5 58 45.5 52 44.5 52Z" fill="#1C5964"/>
<path d="M51.5 72L57.001 61.4904C52.4204 66.1042 47.9351 70.0186 45.2997 73.5C48.3559 70 52.2851 70.5 51.5 72Z" fill="#1C5964"/>
<path d="M89.5711 59C84.8735 64.0703 76.2437 73.1031 76.2437 81.1006C81.6195 71.2107 85.2268 66.5842 91 65.3493C86.4939 65.7528 86.4136 64.205 89.5711 59Z" fill="#1C5964"/>
<path d="M57.001 61.4904L51.5 72M57.001 61.4904C31.3424 70.441 25.0901 54.1088 31.3386 41.5M57.001 61.4904C58.32 59.8557 59.6557 58.5049 61 57.3951M57.001 61.4904C52.4204 66.1042 47.9351 70.0186 45.2997 73.5M90.5033 31.9896C89.7803 32.1828 89.0759 32.3282 88.3874 32.4301M90.5033 31.9896C90.0972 32.0331 89.7105 32.0951 89.3426 32.1741M90.5033 31.9896C90.1038 32.0635 89.717 32.1248 89.3426 32.1741M16 82.5C0.796853 55.0423 8.1824 35.5918 25 26.8732M16 82.5C17.9487 82.5 20.9607 81.8165 24 81.1006M16 82.5C10.774 82.098 7.48046 81.5079 3.79708 78.8447M45.5 21.3084C37.9694 21.9341 30.9293 23.7993 25 26.8732M45.5 21.3084C64 21.3084 65 29.5 53 28.9441M45.5 21.3084C47.5334 18.1536 50.83 17.2165 54.8842 17.3753M45.5 21.3084C47.631 21.1314 49.6246 21.1133 51.5 21.2229M25 26.8732C25 17 43.5 9.5 55.5 2C49.5 14 55.5 15.5 69.5 20.1841M69.5 20.1841C70.6648 20.4646 71.8415 20.741 73.0242 21M69.5 20.1841C64.1857 18.9045 59.1213 17.5414 54.8842 17.3753M53 28.9441C54.9096 29.0603 56.9125 29.398 59.001 29.9903C61.4302 30.6793 65.3795 34.0674 70 37.6554M53 28.9441C42.558 28.3086 34.9083 34.2967 31.3386 41.5M71.7112 27.81C65 25.5 64 31 70 37.6554M71.7112 27.81C73.1788 28.5824 74.6001 29.3318 76.0107 30M71.7112 27.81C66.2361 24.9285 60.1161 21.7269 51.5 21.2229M70 37.6554C72.7449 39.7869 75.7266 41.989 78.7674 43.7378M78.7674 43.7378C86.4161 48.1366 94.4378 49.6669 100.001 39.9903C91.651 49.7811 85.1247 46.1374 83.766 41M78.7674 43.7378C83.2775 45.8223 84.9994 45.9958 83.766 41M83.766 41C83.3497 39.4256 83.4186 37.7108 84.0692 36.1995M82.1568 32.2113C80.0589 31.7595 78.0459 30.9642 76.0107 30M82.1568 32.2113C84.129 32.6361 86.1762 32.7574 88.3874 32.4301M82.1568 32.2113C84.0349 32.7787 84.6635 33.5014 84.0692 36.1995M84 36.5C84.0247 36.3972 84.0478 36.2971 84.0692 36.1995M76.0107 30C79.1515 30.4645 80.308 30.2934 79.8854 28.2024M79.8854 28.2024C79.6495 27.3741 79.6399 26.515 79.8199 25.7224M79.8854 28.2024C80.6027 30.7205 83.4116 32.9547 89.3426 32.1741M79.8199 25.7224C80.2254 23.9374 81.5929 22.4896 83.5033 22.4896C80.063 22.3773 76.5178 21.765 73.0242 21M79.8199 25.7224C80.2112 24 77.9268 22.6583 73.0242 21M84.0692 36.1995C84.7776 34.554 86.1756 33.1496 88.3874 32.4301M88.3874 32.4301C88.6904 32.3315 89.0087 32.2458 89.3426 32.1741M54.8842 17.3753C51.335 17.5792 50.713 19.3346 51.5 21.2229M24 81.1006C28.7589 79.9797 33.5846 78.7795 34.5 80C36.4539 82.6052 37.0107 90.306 35.5 96.5M24 81.1006C27.0565 81.3056 28.5482 81.8656 28.951 82.9222M27.5 87.5C30.1136 86.8038 31.1933 87.2277 31.5 91.5M27.5 87.5C22.3102 90.9902 19.0342 91.9022 12.7936 92.4291M27.5 87.5C26.224 88.4258 25.1305 89.2646 24.2029 90.0349M27.5 87.5C27.9901 86.6623 28.3844 85.921 28.6548 85.2677M31.5 91.5C30 92.1287 29 95 28.5 98C28.1057 100.366 29.8617 103.175 32.85 100.228M31.5 91.5C32.8619 90.9292 33.8093 91.0762 34.5576 92.8484M35.5 96.5C35.2148 94.8644 34.908 93.6782 34.5576 92.8484M35.5 96.5C34.54 98.2357 33.6507 99.4387 32.85 100.228M35.5 96.5C35.3433 97.1424 35.1634 97.7671 34.9605 98.3684M12.7936 92.4291C11.2413 91.9646 9.45968 91.5006 7.5 91C12.5411 89.3061 11.7387 85.7766 3.79708 78.8447M12.7936 92.4291C19.2842 94.3714 21.7666 96.3227 16.5 101C25 100 29.2814 99.0629 28 105.5C31.2626 105.308 33.6156 102.355 34.9605 98.3684M24.2029 90.0349C19.709 93.7664 19.1066 95.8898 20.5 98.5C21.6333 100.623 25.7566 98.7391 28 95C29.4492 92.5847 30.6527 91.2365 31 89.5C31.5 87 27.9069 87.1253 24.2029 90.0349ZM28.951 82.9222C28.9676 82.9477 28.9839 82.9736 29 83C29.368 83.604 29.2208 84.4021 28.6548 85.2677M28.951 82.9222C27.3715 80.5013 23.4476 82.3442 20 83C16.5161 83.6627 10.5 82 11.5 88C11.8175 89.9051 11.5 91.5 13.5 91.5C20.7386 91.5 26.8428 88.0383 28.6548 85.2677M28.951 82.9222C29.1828 83.5305 29.0538 84.3033 28.6548 85.2677M3.79708 78.8447C2.94704 78.1028 2.01521 77.3218 1 76.5C1.97796 77.423 2.89911 78.1955 3.79708 78.8447ZM34.5576 92.8484C35.4704 95.4457 35.5811 97.8187 32.85 100.228M34.9605 98.3684C48.6154 102.042 61.9788 99.2328 73 91.8599M89.5711 59C84.8735 64.0703 76.2437 73.1031 76.2437 81.1006C81.6195 71.2107 85.2268 66.5842 91 65.3493M89.5711 59C91.9812 56.3987 93.3563 54.8404 92 55C86.7757 55.6149 79.4695 52.0711 71.7112 52.851M89.5711 59C86.4136 64.205 86.4939 65.7528 91 65.3493M91 65.3493C92.082 65.1178 93.24 65.0055 94.5 65C89.7563 76.3853 82.1929 85.71 73 91.8599M51.5 72C49 77.5 51.5 81 54.5 80C59 78.5 68 79.5 73 91.8599M51.5 72C52.2851 70.5 48.3559 70 45.2997 73.5M73 91.8599C67 85.5 54.5 88.5 51.5 87C41.8664 82.1832 41.3917 78.6625 45.2997 73.5M71.7112 52.851C74.626 47.8021 65.4333 45.4781 58.5 41.8725M71.7112 52.851C68.1832 53.2057 64.5617 54.4545 61 57.3951M31.3386 41.5C29.1051 50 35.5 53.5 36 46C38 55 44.5 54.5 42 41C44.4629 49.8664 52.2637 49.0275 51.5386 34.6588M58.5 41.8725C58.5 41.8725 54.5 40.6206 53.5 41.8725C52.5 43.1245 53.2433 44.5578 52 46.5C51.0267 48.0203 48.5 49.1218 48.5 50C48.5 52 58 58 61 57.3951M58.5 41.8725C54.9001 40.0004 51.9093 37.7828 51.5386 34.6588M51.5386 34.6588C51.5131 34.4436 51.5 34.224 51.5 34C51.5148 34.2227 51.5277 34.4423 51.5386 34.6588ZM31.5 21C31.5 19.6841 48 8 50 8.5C52 9 53 14 52.5 15C52 16 45 19 44 19.5C43 20 31.5 22.3159 31.5 21ZM32.5 53.5C33 52.5 36 53 37 54C38 55 41 60.9904 40 62C39 63.0096 32 54.5 32.5 53.5ZM41.5 55C42 53.5 43.5 52 44.5 52C45.5 52 55.5 58 55.5 59C55.5 60 47 63 45 62.5C43 62 41 56.5 41.5 55Z" stroke="#1C5964"/>
<circle cx="69.5" cy="62.5" r="3.5" stroke="#1C5964" stroke-width="2"/>
</svg>
