<svg width="101" height="83" viewBox="0 0 101 83" fill="none" xmlns="http://www.w3.org/2000/svg">
<path d="M0.5 60.491C7.5 60.491 14 67.491 21.5 69.491M21.5 69.491C45.3215 86.347 57.9557 85.4112 79.5 69.491M21.5 69.491C16.3053 65.1648 12.6182 60.4872 10.5419 56.004M79.5 69.491C89.2024 64.4233 92.5 61.504 100 60.491M79.5 69.491C82.1593 65.2764 85.0868 61.5749 87.5 58.16M63.5 67.491C63.5 62.7811 73.4601 52.1856 81.5 45.7571M38 67.491C38 62.3419 27.4314 51.7789 19.5 45.4585M87.5 58.16C92.0221 51.7607 94.7383 46.3679 90.5 40.491C88.8643 40.491 85.4091 42.6316 81.5 45.7571M87.5 58.16C91.8289 55.7582 94.1937 53.9401 98 47.504M2.5 47.504C4.71852 52.8355 6.39892 54.8722 10.5419 56.004M10.5419 56.004C7.79408 50.0709 7.86721 44.4782 11 40.491C11.5584 39.7803 15.1286 41.975 19.5 45.4585M19.5 45.4585C20.545 43.1434 21.5527 41.1376 22.5892 39.5M81.5 45.7571C80.5654 43.2254 79.5269 41.1489 78.3978 39.5M26.5 35.3302C30.785 32.8829 36.4416 36.042 46.5 47.504C48 49.2134 51.5 49.4993 53 47.504C60.926 36.9608 68.5156 32.1323 74.5 35.6553M26.5 35.3302C25.9466 32.4144 26.5953 31.0394 29 29C29.3378 28.7135 29.4233 27.9782 29.4351 27M26.5 35.3302C25.0829 36.1395 23.8159 37.5619 22.5892 39.5M30 20C31.2541 14.187 32.5 10 39 10M30 20C33 30.5 44.5 15.5 39 10M30 20C29.198 22.2316 29.4582 25.0824 29.4351 27M39 10C41.6772 4.84802 47.5 0.5 50 0.5C52.5 0.5 58.6186 5.42525 62 10M39 10C47.4642 11.0107 50 16.5 43.5 24C40.9 27 39 29 39 31.5M62 10C69.5 10 72.5 18 70.5 22M62 10C56.5 12.5 63.5 28 70.5 22M62 10C53 10 51.5 17.5 57 24C60 27.5455 61.1094 27.7579 62 31.5M70.5 22L71.2143 27M74.5 35.6553L71.5 29L71.2143 27M74.5 35.6553C75.8913 36.4744 77.1959 37.7449 78.3978 39.5M29.4351 27C26.5729 25.4864 24.4117 24.6776 20.5 24.2572M17 24C18.318 24.0626 19.4697 24.1465 20.5 24.2572M20.5 24.2572C25.5 17.5 21.5 10 26.5 2.5M18 2.5C19.263 8.05722 18.5593 11.857 17 14.8222M22.5892 39.5C8.45296 31.6097 6.31971 26.78 11 22C13.1249 19.8299 15.4728 17.7263 17 14.8222M17 14.8222C13.8626 12.9022 12.6676 11.8425 11 10M71.2143 27C74.8179 25.0968 77.4055 24.2069 81.5 24.015M85 24C83.7051 23.9624 82.5528 23.9656 81.5 24.015M81.5 24.015C74.5 17.5 79.5 8.5 74.5 2.5M84 2.5C82.0567 8.32999 81.624 12.5419 85.2852 17.5M78.3978 39.5C91.1826 32.189 95.0727 27 89.5 22C87.7187 20.4017 86.334 18.9203 85.2852 17.5M85.2852 17.5C86.3872 13.365 87.3906 11.5433 90.5 10" stroke="#1C5964"/>
<circle cx="30.5" cy="44.5" r="1.5" fill="#1C5964"/>
<circle cx="40.5" cy="50.5" r="1.5" fill="#1C5964"/>
<circle cx="40.5" cy="60.5" r="1.5" fill="#1C5964"/>
<circle cx="52" cy="60" r="2" fill="#1C5964"/>
<circle cx="52" cy="71" r="2" fill="#1C5964"/>
<circle cx="58.5" cy="50.5" r="1.5" fill="#1C5964"/>
<circle cx="67.5" cy="50.5" r="1.5" fill="#1C5964"/>
<circle cx="67.5" cy="41.5" r="1.5" fill="#1C5964"/>
</svg>
