<svg width="90" height="102" viewBox="0 0 90 102" fill="none" xmlns="http://www.w3.org/2000/svg">
<path d="M75.5 86.8959C78.976 88.1189 82.7897 88.7318 87.5 88.9986C84.7192 86.8573 82.1801 84.883 79.8094 83C81.9309 86.6244 80.2433 87.0634 75.5 86.8959Z" fill="#1C5964"/>
<path d="M29.6045 33.5C27.5717 34.0302 25.8199 34.5665 24.3032 35.1058C24.2486 35.1253 24.1942 35.1447 24.1402 35.1641C23.7441 35.3066 23.3643 35.4493 23 35.5921C25.5 34.6972 30.6479 34.3996 32.2861 36C31.3936 35.0645 30.4988 34.2316 29.6045 33.5Z" fill="#1C5964"/>
<path d="M24.3032 35.1058C25.8199 34.5665 27.5717 34.0302 29.6045 33.5C28.103 32.2715 26.6031 31.3284 25.118 30.6637C27.3399 31.8659 26.4367 34.2909 24.3032 35.1058Z" fill="#1C5964"/>
<path d="M19 88.9986C22.6579 88.6013 25.2603 89.2942 26.9003 90.9979M20 96.9979C21.0169 94.0262 22.2364 92.6066 26.9003 90.9979M26.9003 90.9979C28.6052 92.7689 29.2702 95.6322 29 99.4985C34.1269 92.8325 37.8832 91.7445 46 93.9986C42.2777 90.5689 40.6429 88.4425 38.721 84.6633M1.5 49.5C19 56 6.55375 67 20.5 74.9979M1.5 49.5C4.5 45.0021 5 41.6537 6.55375 39C11.495 30.5606 18.1424 27.5412 25.118 30.6637M1.5 49.5C17.9086 46.8391 8.9278 41.1087 23 35.5921M20.5 74.9979C16.1994 64.3794 18.4233 55.4657 32.7508 46.5M20.5 74.9979C22.8813 80.8776 30.5368 84.4046 38.721 84.6633M38 43.4979C44 40.3394 51.5 20.5 33.5 2.5C40.6521 4.08853 45.825 6.71505 49 10.5186M38 43.4979C36.0948 44.5009 34.3476 45.5008 32.7508 46.5M38 43.4979C36.1246 40.5115 34.2106 38.0171 32.2861 36M29.6045 33.5C30.4988 34.2316 31.3936 35.0645 32.2861 36M29.6045 33.5C28.103 32.2715 26.6031 31.3284 25.118 30.6637M29.6045 33.5C27.5717 34.0302 25.8199 34.5665 24.3032 35.1058M44.5 47.5C53.7705 29.9522 55.2235 17.9742 49 10.5186M49 10.5186C50 8.5 49.64 6.49351 48.5 2C58.3313 7.96941 63.33 16.2053 63.528 25M49 52C58.8771 43.6425 63.7313 34.0269 63.528 25M63.528 25C65.248 20.2804 66.0073 17.1647 66 8.5C75.2131 20.9176 78.9632 34.109 65.6991 47.5M52.5 57.5C58.0658 54.1602 62.4066 50.824 65.6991 47.5M52.5 57.5C82.8469 57.4888 89.5 47.5 84.5 28.5L65.6991 47.5M52.5 57.5C65.4546 57.3398 72.4176 58.0827 87.5 52C83.5 64 75 68.9162 63.528 68.9162M52.5 57.5C58.5976 64.1944 63.6348 69.21 69 73.9784M59.5 75.6395C39.9726 76.7354 25.6179 62.9256 32.7508 46.5M59.5 75.6395C62.5605 75.4677 65.7481 74.9298 69 73.9784M59.5 75.6395C54.8563 82.1696 46.5469 84.9107 38.721 84.6633M59.5 75.6395C65.4373 81.5663 70.0542 84.9799 75.5 86.8959M69 73.9784C72.3607 76.9653 75.8501 79.8552 79.8094 83M23 35.5921C25.5 34.6972 30.6479 34.3996 32.2861 36M23 35.5921C23.3643 35.4493 23.7441 35.3066 24.1402 35.1641M75.5 86.8959C78.976 88.1189 82.7897 88.7318 87.5 88.9986C84.7192 86.8573 82.1801 84.883 79.8094 83M75.5 86.8959C80.2433 87.0634 81.9309 86.6244 79.8094 83M24.1402 35.1641C24.1953 35.1457 24.2497 35.1263 24.3032 35.1058M24.1402 35.1641C24.1942 35.1447 24.2486 35.1253 24.3032 35.1058M25.118 30.6637C27.3399 31.8659 26.4367 34.2909 24.3032 35.1058" stroke="#1C5964"/>
</svg>
