<?xml version="1.0" encoding="UTF-8" standalone="no"?><!DOCTYPE svg PUBLIC "-//W3C//DTD SVG 1.1//EN" "http://www.w3.org/Graphics/SVG/1.1/DTD/svg11.dtd"><svg width="100%" height="100%" viewBox="0 0 792 782" version="1.1" xmlns="http://www.w3.org/2000/svg" xmlns:xlink="http://www.w3.org/1999/xlink" xml:space="preserve" xmlns:serif="http://www.serif.com/" style="fill-rule:evenodd;clip-rule:evenodd;stroke-linejoin:round;stroke-miterlimit:2;"><g><path d="M371.789,3.859c-52.69,3.063 -97.824,14.908 -146.634,37.781c-41.049,19.606 -78.422,46.563 -111.915,81.077c-44.317,45.543 -70.458,89.451 -94.76,158.888c-3.881,10.823 -12.05,52.894 -14.092,71.887c-9.599,86.795 13.683,178.492 63.514,252.422c5.718,8.373 11.437,16.746 13.07,18.584c1.43,1.838 5.514,6.944 8.986,11.233c11.233,14.5 25.12,28.387 54.528,54.732c18.993,16.951 62.085,43.091 96.803,58.613c20.218,8.985 59.225,20.626 83.528,25.119c20.831,3.676 33.084,4.493 67.394,4.697c23.078,0 46.972,-0.612 53.099,-1.429c18.993,-2.655 33.288,-5.31 44.929,-8.578c6.127,-1.633 13.479,-3.676 16.338,-4.493c13.888,-3.676 61.268,-22.464 71.683,-28.591c6.331,-3.88 12.254,-6.944 12.866,-6.944c2.86,0 36.557,-22.669 51.261,-34.514c40.028,-32.063 67.598,-64.331 99.253,-115.591c5.106,-8.373 12.049,-22.465 20.219,-40.845c2.45,-5.718 5.309,-12.049 6.33,-14.296c1.022,-2.246 3.677,-11.028 5.719,-19.401c2.246,-8.373 5.31,-20.014 7.148,-25.528c11.436,-39.416 11.64,-122.944 0.204,-171.549c-1.634,-6.944 -10.211,-36.761 -12.254,-42.888c-5.105,-15.112 -21.443,-50.035 -29.816,-64.126c-4.493,-6.944 -7.965,-13.479 -7.965,-14.092c-0,-0.612 -3.064,-5.105 -6.535,-10.007c-20.627,-27.57 -32.676,-42.274 -47.993,-57.183c-84.141,-82.915 -187.07,-121.718 -304.908,-114.978m78.014,9.394c67.19,10.211 130.295,36.148 180.535,74.134c23.281,17.563 60.042,53.711 72.295,71.274c4.493,6.331 12.866,17.972 18.585,25.937c13.274,18.38 32.267,57.591 41.662,85.57c11.232,33.901 14.704,50.852 17.971,92.718c2.451,31.451 1.838,52.894 -3.063,83.12c-5.106,33.084 -13.07,64.126 -20.831,81.077c-2.859,6.331 -5.31,12.253 -5.31,13.07c0,4.493 -34.922,65.761 -41.457,72.704c-1.226,1.43 -6.536,8.169 -11.437,14.909c-11.437,15.521 -45.338,48.605 -66.577,64.535c-18.381,13.683 -46.972,32.472 -49.627,32.472c-1.021,-0 -4.085,1.634 -6.739,3.676c-4.493,3.472 -51.874,22.873 -55.55,22.873c-1.021,0 -4.697,1.225 -8.169,2.859c-3.676,1.634 -8.781,3.472 -11.641,3.88c-2.859,0.613 -12.049,2.655 -20.422,4.289c-8.373,1.838 -20.831,4.493 -27.57,5.718c-13.275,2.655 -94.557,3.472 -108.24,1.022c-7.964,-1.43 -14.908,-2.655 -38.598,-7.557c-35.944,-7.148 -89.042,-30.225 -126.211,-54.936c-72.704,-47.993 -128.049,-122.944 -152.965,-206.472c-12.049,-40.845 -14.908,-61.471 -14.704,-109.26c0,-50.035 4.289,-75.972 21.239,-126.62c7.353,-21.647 32.064,-68.823 47.585,-90.471c24.303,-33.902 64.943,-75.155 87.408,-88.634c3.676,-2.246 7.148,-4.697 7.761,-5.514c0.612,-0.817 6.943,-5.106 14.296,-9.803c42.683,-27.366 94.351,-46.563 150.105,-55.753c29.408,-4.902 81.077,-5.31 109.669,-0.817" style="fill:#1c5964;fill-rule:nonzero;"/><path d="M342.789,25.302c-126.415,17.972 -235.063,99.662 -289.183,217.704c-7.148,15.317 -16.542,43.091 -22.873,67.19c-7.352,28.387 -10.415,78.014 -7.148,120.493c2.042,25.528 13.479,72.5 22.669,93.739c1.838,4.085 4.085,9.19 4.902,11.437c10.211,25.119 23.69,48.401 44.521,76.38c54.528,73.317 135.197,123.76 227.098,141.936c108.852,21.648 224.443,-6.943 311.851,-77.197c14.092,-11.436 53.916,-52.486 60.859,-62.901c3.268,-4.902 7.761,-10.824 10.007,-13.479c12.458,-14.092 39.824,-67.803 47.585,-93.331c1.634,-5.718 4.901,-16.134 7.148,-23.282c2.042,-7.147 4.901,-20.422 5.922,-29.612c1.226,-8.986 3.064,-20.831 4.085,-26.141c2.655,-12.049 2.042,-49.422 -1.43,-78.218c-15.113,-126.415 -89.246,-230.979 -205.45,-289.795c-28.387,-14.296 -54.937,-23.282 -90.472,-31.043c-21.035,-4.697 -30.429,-5.514 -67.394,-6.126c-29,-0.409 -49.423,0.408 -62.697,2.246m52.486,23.894c-1.226,5.923 -11.641,30.022 -17.972,41.458c-1.226,2.247 -3.472,6.535 -4.902,9.599c-1.633,3.063 -3.88,6.331 -5.105,6.943c-1.226,0.817 -1.838,0.613 -1.226,-0.408c0.817,-1.838 3.268,-7.352 12.662,-28.387c2.655,-5.719 6.944,-15.93 9.599,-23.078c5.106,-13.479 9.19,-16.95 6.944,-6.127m16.133,16.543c0.613,3.063 0.409,5.514 -0.612,5.514c-1.021,-0 -2.247,-2.451 -2.859,-5.719c-0.613,-3.063 -1.634,-7.76 -2.451,-10.619l-1.43,-5.106l3.064,5.31c1.429,2.859 3.471,7.556 4.288,10.62m60.859,2.859c1.226,5.31 2.247,12.049 2.655,14.908c0.817,9.599 1.022,10.212 3.676,10.212c4.085,-0 27.979,12.253 27.979,14.295c0,1.021 -3.063,8.986 -6.943,17.768c-7.352,16.951 -15.113,27.162 -20.423,27.162c-4.084,-0 -17.563,-11.845 -17.563,-15.317c-0,-1.43 -0.817,-3.063 -1.634,-3.472c-3.676,-1.43 -30.634,-43.908 -32.063,-50.239c-1.226,-6.331 -1.021,-6.535 5.105,-6.535c3.472,-0 12.866,2.654 20.831,6.126c16.542,7.148 15.93,6.944 15.93,3.472c-0,-1.634 -2.247,-3.88 -5.106,-5.106c-5.31,-2.45 -5.31,-2.042 2.042,-22.669c1.634,-4.288 3.268,-1.429 5.514,9.395m-139.894,6.535c1.226,11.232 3.064,11.845 17.768,5.514c10.211,-4.289 17.563,-4.289 17.563,0c0,9.803 -29.204,55.345 -41.662,64.944c-6.331,4.901 -7.352,5.105 -9.802,2.042c-1.43,-1.634 -4.085,-4.697 -5.719,-6.535c-1.634,-2.043 -6.331,-9.803 -10.211,-17.359l-7.148,-13.888l5.923,-4.493c3.471,-2.45 9.394,-6.331 13.274,-8.577c6.331,-3.676 7.557,-5.718 9.803,-16.338c5.106,-23.69 4.697,-22.873 6.944,-18.789c1.225,1.838 2.655,7.965 3.267,13.479m70.05,-8.577c1.225,3.267 2.859,7.352 4.084,9.19c1.021,1.838 2.655,7.352 3.268,12.253c0.817,5.106 4.288,12.458 8.373,17.768c3.676,4.901 6.739,9.803 6.739,10.619c0,3.472 -3.063,1.839 -5.105,-2.654c-1.226,-2.655 -6.127,-6.944 -11.233,-9.803c-7.965,-4.289 -8.577,-5.106 -4.493,-5.719c2.859,-0.408 4.493,-2.042 4.493,-4.697c0,-4.697 -5.514,-7.352 -8.781,-4.084c-2.86,2.859 -11.029,2.859 -12.662,0.204c-0.817,-1.225 1.021,-6.127 3.88,-11.232c2.859,-4.902 5.31,-10.824 5.31,-13.071c-0,-6.127 3.88,-5.31 6.127,1.226m11.64,11.232c-0.612,1.634 -1.225,1.021 -1.225,-1.225c-0.204,-2.247 0.408,-3.472 1.021,-2.655c0.613,0.612 0.817,2.45 0.204,3.88m-134.992,15.317c1.633,8.577 16.133,40.845 24.098,53.507c4.493,6.943 4.902,9.19 3.268,12.662c-1.226,2.246 -2.042,7.148 -1.634,10.619c0.204,4.085 -1.43,10.416 -4.901,16.747c-2.86,5.718 -6.944,15.725 -8.782,22.056c-1.838,6.331 -4.085,11.641 -4.902,11.641c-1.021,0 -3.267,-4.901 -5.105,-10.824c-1.838,-5.718 -5.106,-13.479 -7.352,-16.746c-4.902,-7.352 -5.106,-10.007 -1.021,-8.374c5.718,2.043 3.267,-7.147 -4.289,-16.95c-0.409,-0.409 -2.042,0.408 -3.676,1.634c-2.451,2.042 -3.676,1.429 -6.331,-3.881c-3.063,-5.922 -3.063,-7.352 1.838,-26.141c2.859,-10.823 6.331,-23.485 7.965,-27.978c1.633,-4.493 3.676,-12.05 4.493,-16.951c1.633,-10.62 4.493,-11.028 6.331,-1.021m151.739,17.972c0.204,3.267 -7.352,-9.803 -8.782,-15.317c-0.817,-2.859 0.817,-1.021 3.676,4.084c2.859,5.106 5.106,10.007 5.106,11.233m92.922,-4.085c1.838,6.127 4.289,11.641 5.31,12.254c1.225,0.612 2.042,3.471 2.042,6.331c0,2.655 0.817,4.901 1.838,4.901c2.043,0 4.085,10.007 5.514,27.57c1.021,11.641 0.613,13.275 -7.148,26.754c-7.147,12.253 -8.373,16.338 -8.373,26.141c0,15.317 -4.084,15.112 -10.211,-0.409c-2.246,-5.922 -2.246,-6.943 1.838,-10.415c2.247,-2.043 4.289,-4.902 4.289,-6.331c-0,-1.43 2.246,-5.106 5.105,-8.578c2.86,-3.267 5.106,-7.556 5.106,-9.19c0,-1.838 1.43,-4.901 3.268,-6.943c2.042,-2.247 2.45,-3.881 1.021,-4.902c-1.226,-0.613 -3.064,0.817 -4.085,3.472c-1.021,2.655 -3.676,6.535 -6.127,8.577c-2.246,2.247 -4.288,5.106 -4.288,6.536c-0,1.429 -2.042,3.88 -4.493,5.105c-2.655,1.43 -5.718,3.881 -6.944,5.514c-1.634,2.247 -3.063,1.226 -7.76,-5.514c-4.289,-6.127 -5.923,-11.232 -6.536,-20.014c-0.612,-10.211 0.205,-13.274 6.127,-24.098c3.88,-6.74 7.556,-15.521 8.373,-19.402c0.817,-3.88 2.655,-10.007 4.085,-13.274c1.429,-3.472 3.267,-8.782 3.88,-11.845c1.838,-7.761 4.493,-5.31 8.169,7.76m-130.295,-5.31c-0.613,0.817 -3.881,2.859 -6.944,4.085c-3.268,1.429 -6.944,4.697 -8.169,7.556c-2.451,5.106 -6.535,6.74 -6.535,2.451c-0,-1.226 2.246,-5.31 5.31,-9.19c3.676,-4.902 6.739,-6.74 11.232,-6.74c3.472,0 5.718,0.817 5.106,1.838m18.788,13.888c3.676,3.88 4.493,7.352 4.493,16.95c0,14.296 2.451,17.359 14.704,19.197c5.31,0.817 11.233,3.472 14.296,6.331c3.064,2.86 6.535,5.106 7.965,5.106c1.634,0 1.634,0.817 -0.204,3.063c-2.042,2.451 -2.042,3.676 -0,6.127c1.838,2.042 1.838,4.493 0.408,8.578c-1.429,3.676 -2.246,4.288 -2.246,2.042c-0.204,-4.697 -3.268,-4.493 -10.824,0.817c-5.514,4.084 -6.74,4.084 -14.092,1.838c-10.824,-3.676 -13.683,-7.148 -8.169,-10.62c4.902,-3.063 5.719,-8.782 1.634,-11.232c-5.106,-3.064 -15.725,-19.606 -15.725,-24.507c-0,-6.331 -7.352,-6.536 -8.986,-0.205c-2.042,8.578 -12.254,21.853 -17.972,23.895c-7.148,2.45 -7.148,4.289 -0.408,12.253c6.126,7.352 5.309,9.599 -4.902,12.458c-16.134,4.493 -24.915,1.838 -24.915,-7.556c-0,-3.268 -1.226,-4.697 -4.085,-4.697c-5.31,-0 -5.31,-5.515 0,-7.148c2.247,-0.817 5.514,-3.881 7.148,-7.148c4.085,-7.965 9.803,-10.62 18.176,-8.986c5.923,1.021 7.148,0.613 8.373,-3.064c1.634,-5.309 -0.204,-8.373 -5.309,-8.373c-2.451,0 -3.881,-1.429 -3.881,-4.084c0,-2.247 0.817,-4.085 2.043,-4.085c1.021,0 3.676,-3.472 5.514,-7.556c2.042,-4.289 6.126,-8.986 9.394,-10.416c3.063,-1.429 5.514,-3.471 5.514,-4.697c0,-3.676 17.155,0.817 22.056,5.719m27.571,6.126l3.472,7.761l-5.106,-6.127c-5.31,-6.331 -6.331,-9.19 -3.472,-9.19c1.021,0 3.268,3.472 5.106,7.556m-196.056,4.902c4.697,10.824 6.331,19.197 4.697,23.486c-2.042,5.514 -4.902,1.021 -7.148,-11.437c-1.021,-6.127 -2.451,-13.275 -3.268,-15.93c-2.45,-7.76 1.838,-4.901 5.719,3.881m189.52,2.859c5.923,-0 8.374,8.169 2.451,8.373c-2.042,0.204 -5.105,0.613 -6.739,1.021c-2.247,0.613 -3.268,-1.429 -3.472,-8.373c-0.409,-6.331 -0,-7.965 1.225,-5.106c1.021,2.451 3.676,4.085 6.535,4.085m112.937,3.676c1.225,1.838 1.429,3.88 0.613,4.697c-1.838,1.838 -7.557,-3.063 -7.557,-6.739c0,-3.676 4.085,-2.451 6.944,2.042m-181.556,-0.613c-0.613,1.021 -2.042,2.043 -3.268,2.043c-1.021,-0 -1.838,-1.022 -1.838,-2.043c0,-1.225 1.43,-2.042 3.268,-2.042c1.634,0 2.451,0.817 1.838,2.042m192.38,1.43c-0.613,2.042 -1.634,7.965 -2.451,13.479c-0.613,5.31 -2.042,9.19 -3.267,8.577c-3.064,-2.042 -2.043,-15.317 1.838,-20.422c4.084,-5.923 5.105,-6.331 3.88,-1.634m-103.338,19.197c2.655,5.31 1.43,4.901 -4.493,-1.43c-3.472,-3.88 -3.88,-4.697 -1.225,-3.676c2.042,0.613 4.493,3.064 5.718,5.106m-51.26,-0.408c-0,1.021 2.246,4.697 5.105,8.169l5.31,6.126l-6.739,10.212c-6.331,9.598 -11.437,13.274 -12.05,8.373c-0.204,-1.226 -0.408,-3.268 -0.612,-4.697c-0,-1.226 -2.247,-3.268 -4.698,-4.493c-6.943,-2.86 -7.556,-7.352 -1.838,-12.05c2.655,-2.45 5.923,-6.331 7.148,-8.986c2.247,-4.288 8.374,-6.331 8.374,-2.654m-74.543,6.33c-0.612,1.022 0.613,2.043 2.86,2.043c2.45,-0 4.288,1.225 4.288,2.45c0,1.43 0.613,4.902 1.43,7.557c1.021,4.289 0.613,4.697 -3.064,3.88c-2.45,-0.817 -4.492,-0.408 -4.492,0.613c-0,1.021 1.021,1.838 2.042,1.838c1.225,-0 2.042,1.225 2.042,2.859c0,1.634 6.944,9.803 15.317,18.176c8.373,8.577 15.317,15.929 15.317,16.746c-0,0.613 1.021,2.247 2.042,3.676c5.514,6.331 11.641,17.36 9.394,16.543c-1.225,-0.409 -4.901,-4.902 -7.964,-9.599c-5.923,-9.19 -38.803,-43.296 -44.726,-46.563c-4.288,-2.247 -5.105,-15.93 -1.225,-19.81c2.859,-2.859 8.577,-3.268 6.739,-0.409m143.979,8.578c0,3.472 -0.613,3.676 -3.063,1.634c-1.634,-1.43 -3.064,-4.289 -3.064,-6.535c0,-3.472 0.613,-3.677 3.064,-1.634c1.633,1.429 3.063,4.288 3.063,6.535m16.951,21.239c2.042,2.655 9.19,15.317 15.725,28.183l12.049,23.078l-8.169,5.31c-11.028,7.148 -15.521,7.352 -11.028,0.612c3.064,-4.697 3.064,-5.105 -1.021,-7.352c-2.246,-1.225 -3.676,-3.063 -3.268,-3.88c1.226,-1.838 -2.45,-37.169 -4.084,-38.803c-0.409,-0.612 -2.247,0.409 -3.676,2.042c-2.247,2.247 -2.451,5.515 -1.021,15.113c1.021,6.74 1.225,14.909 0.408,18.38c-0.817,3.268 -1.225,7.148 -1.021,8.374c0.204,1.225 -1.43,3.88 -3.676,5.922c-6.127,5.718 -4.901,7.352 4.493,5.923c10.824,-1.838 8.986,1.633 -4.085,7.352c-15.112,6.739 -31.246,11.641 -43.295,13.274c-6.127,0.613 -15.113,2.86 -20.014,4.493c-4.697,1.838 -9.19,2.655 -10.007,2.043c-2.247,-2.451 3.88,-7.557 9.394,-7.557c7.556,-0.204 51.873,-15.317 52.894,-18.176c1.021,-3.063 -23.69,-0.817 -27.774,2.451c-4.902,3.88 -5.31,-0.613 -0.817,-8.578c2.451,-4.288 5.922,-10.619 7.556,-13.683c1.634,-3.267 8.986,-11.845 16.338,-19.401c12.662,-13.07 16.338,-20.218 10.416,-20.218c-5.514,-0 -37.986,41.866 -37.986,49.218c-0,1.021 -0.817,1.838 -1.634,1.838c-1.021,0 -3.676,3.676 -6.127,7.965c-4.289,7.76 -7.965,10.415 -13.683,10.415c-6.944,0 23.69,-46.563 45.542,-69.436c12.662,-13.071 20.627,-14.5 27.571,-4.902m-165.218,4.085c4.288,4.901 6.943,8.986 5.514,8.986c-1.226,-0 -2.247,-1.021 -2.247,-2.042c0,-1.226 -1.838,-2.043 -4.084,-2.043c-2.247,0 -4.085,0.613 -4.085,1.43c0.204,3.063 10.824,9.394 16.542,9.803c6.331,0.408 11.233,3.676 14.296,9.802c1.838,3.268 1.634,3.676 -2.042,2.451c-5.718,-1.838 -5.514,-0.408 1.838,10.211c3.472,4.902 6.127,10.007 6.127,11.233c-0,1.429 2.246,5.31 5.105,8.577c2.86,3.472 4.902,6.535 4.493,6.944c-0.408,0.408 -5.718,-0.204 -11.845,-1.225c-6.126,-1.226 -13.683,-2.655 -16.746,-3.064c-3.268,-0.408 -7.148,-1.838 -8.578,-3.063c-2.859,-2.451 -7.147,-1.226 -7.147,2.042c-0,1.021 2.042,2.246 4.697,3.063c2.45,0.613 6.331,2.043 8.577,3.064c11.233,4.697 32.472,10.415 43.092,11.845c9.394,1.021 12.253,2.246 12.662,5.31c0.612,3.267 -0,3.676 -5.106,2.45c-3.063,-0.817 -8.373,-1.838 -11.845,-2.45c-3.268,-0.409 -12.866,-2.043 -21.035,-3.268c-8.169,-1.225 -15.317,-3.063 -15.93,-3.88c-0.408,-0.817 -5.31,-2.247 -10.62,-3.064c-5.309,-0.612 -11.436,-3.063 -13.683,-5.105c-2.246,-2.042 -6.535,-4.493 -9.802,-5.719c-6.331,-2.45 -8.782,-6.739 -6.331,-12.049c0.817,-1.838 1.429,-4.084 1.225,-4.901c-2.655,-12.662 3.268,-33.289 15.317,-53.303c1.634,-2.655 3.472,-1.225 11.641,7.965m90.267,-6.331c0.817,1.634 0.204,4.493 -1.225,6.127c-2.042,2.45 -2.042,3.676 -0,6.126c2.042,2.451 3.063,2.655 4.288,0.817c1.226,-2.042 2.247,-2.042 4.698,0c4.493,3.881 4.084,11.845 -0.817,14.5c-2.247,1.226 -4.085,3.472 -4.085,4.902c0,3.063 -8.577,7.352 -14.5,7.352c-5.514,-0 -16.133,-7.557 -17.972,-13.071c-1.021,-2.655 -0.612,-6.739 1.43,-11.028c3.676,-7.352 4.901,-7.965 8.578,-3.472c4.084,4.902 5.922,3.676 10.211,-6.126c4.084,-9.395 7.352,-11.641 9.394,-6.127m130.296,1.429c2.655,10.007 3.88,32.268 1.633,32.268c-1.225,0 -2.45,-1.021 -2.859,-2.451c-0.408,-1.225 -2.042,-1.634 -3.267,-0.817c-1.43,0.817 -2.043,3.268 -1.43,5.31c0.817,2.451 -0.408,4.902 -3.267,6.944c-5.515,3.88 -8.578,2.042 -3.268,-1.838c3.472,-2.451 3.472,-2.859 0.408,-4.697c-3.063,-1.634 -3.267,-3.268 -1.225,-12.254c2.451,-11.436 8.577,-26.957 10.62,-26.957c0.817,-0 1.838,2.042 2.655,4.492m-156.028,1.838c-0,1.022 -0.817,1.839 -2.042,1.839c-1.022,-0 -2.043,-1.43 -2.043,-3.268c0,-1.634 1.021,-2.451 2.043,-1.838c1.225,0.613 2.042,2.042 2.042,3.267m-120.493,16.951c0,3.472 -1.021,7.761 -2.042,9.394c-1.43,2.451 -2.451,1.43 -5.106,-4.492c-3.676,-9.191 -3.88,-15.317 -0.408,-16.543c3.676,-1.429 7.556,4.493 7.556,11.641m102.113,-4.084c-0,1.429 1.429,3.88 3.063,5.31c2.042,1.838 3.063,1.838 3.063,0.204c0,-1.226 1.021,-2.247 2.247,-2.247c1.634,0 1.634,0.817 -0.204,3.064c-2.043,2.45 -1.226,4.493 3.88,11.64c10.415,14.092 7.148,13.479 -6.944,-1.633c-13.887,-14.705 -15.929,-19.197 -9.19,-19.197c2.246,-0 4.085,1.225 4.085,2.859m67.394,-0.817c-0,1.021 -0.817,2.042 -2.042,2.042c-1.022,0 -2.043,-1.021 -2.043,-2.042c0,-1.226 1.021,-2.042 2.043,-2.042c1.225,-0 2.042,0.816 2.042,2.042m-160.317,22.465c0.613,1.021 0.204,2.042 -0.817,2.042c-1.225,-0 -2.246,-1.021 -2.246,-2.042c-0,-1.226 0.408,-2.043 0.817,-2.043c0.612,0 1.633,0.817 2.246,2.043m-12.253,13.683c6.126,6.331 10.619,12.253 10.007,13.274c-2.247,3.472 1.429,5.719 5.514,3.064c8.986,-5.514 9.19,7.352 0.408,32.267c-2.859,7.761 -5.922,18.585 -6.739,23.69c-1.021,5.106 -3.268,12.866 -5.106,17.359c-1.838,4.289 -4.697,14.296 -6.331,21.852c-1.429,7.557 -4.084,16.338 -5.718,19.402c-5.718,11.232 -17.155,45.134 -24.916,73.929c-3.676,13.275 -5.309,25.324 -5.514,38.19c-0.204,10.416 -1.021,18.993 -1.838,18.993c-0.817,0 -1.021,1.43 -0.204,3.268c0.613,1.634 2.451,2.655 4.085,2.042c3.267,-1.429 10.824,5.718 10.824,10.007c-0,1.634 1.021,3.064 2.042,3.064c1.225,-0 2.042,1.429 2.042,3.063c0,1.634 2.042,5.106 4.697,7.76c6.535,7.148 16.338,23.895 14.909,25.324c-0.613,0.817 -3.472,0.205 -6.536,-1.021c-3.471,-1.634 -6.331,-1.838 -8.985,-0.408c-5.923,3.267 -6.331,2.655 -5.31,-9.395c0.612,-6.331 0.408,-12.662 -0.205,-14.295c-1.429,-3.881 -6.126,-3.676 -8.781,0.612c-1.634,2.655 -2.655,2.859 -3.268,1.021c-1.838,-4.288 -4.901,-2.654 -4.901,2.451c-0,6.127 3.063,8.578 4.901,4.085c1.838,-4.902 7.352,0.204 7.352,6.739c0,4.289 -0.817,5.106 -4.901,4.289l-4.902,-1.021l3.677,7.964c4.697,10.62 7.964,13.888 6.535,6.74c-1.021,-5.31 -0.817,-5.514 5.922,-4.085c3.881,0.817 10.62,1.634 15.317,1.838c10.62,0.613 15.93,4.289 24.303,17.768c7.76,12.253 8.577,13.275 14.091,19.81c3.676,4.289 3.676,4.697 0.613,7.148c-2.451,1.633 -2.859,3.267 -1.429,5.514c1.633,2.45 2.654,2.655 6.126,0.408c2.247,-1.225 4.902,-2.45 5.719,-2.45c3.063,-0 6.126,9.19 5.105,14.908c-0.817,4.084 -0.204,5.514 2.247,5.514c2.042,0 3.267,-1.634 3.267,-4.493c0,-4.289 0.204,-4.289 3.472,-1.225c2.655,2.859 2.859,4.084 0.817,6.535c-2.042,2.451 -1.838,3.268 1.021,4.901c3.063,1.838 3.268,2.655 1.021,5.31c-3.676,4.493 -6.127,4.085 -11.641,-1.838c-4.901,-5.31 -6.943,-6.331 -6.943,-3.267c-0,3.063 12.253,14.5 15.317,14.5c1.633,-0 3.676,1.429 4.697,3.471c1.225,1.838 3.267,2.859 5.105,2.043c3.268,-1.226 3.268,-3.676 0.409,-10.212c-0.817,-2.042 -1.021,-4.288 -0.409,-4.901c0.817,-0.613 0.409,-2.859 -0.816,-5.106c-2.043,-3.676 -1.838,-3.88 3.88,-0.817c7.556,3.881 11.641,8.986 11.641,14.296c-0,2.655 1.429,4.493 4.084,4.902c2.247,0.408 5.923,1.429 8.169,2.45c2.247,0.817 5.718,2.247 7.761,2.859c6.535,2.043 3.88,5.719 -3.064,4.289c-6.126,-1.021 -6.331,-1.021 -3.063,1.838c2.042,1.634 8.577,3.472 14.296,4.289c5.922,0.817 13.07,2.859 16.338,4.289c3.063,1.633 5.514,2.45 5.514,1.633c-0,-0.612 2.246,0.205 4.901,1.838c7.556,5.106 33.085,1.43 42.071,-5.718c1.633,-1.429 6.535,-3.676 10.823,-5.105c4.085,-1.226 7.557,-3.268 7.557,-4.289c-0,-1.021 1.225,-1.838 2.655,-1.838c1.225,-0 6.535,-4.902 11.436,-10.824c4.902,-6.127 11.437,-12.662 14.704,-14.704c3.064,-2.247 6.127,-5.923 6.74,-8.578c0.817,-2.655 3.063,-4.697 5.922,-5.105c3.472,-0.409 4.289,-1.838 3.881,-5.31c-1.021,-6.535 3.267,-11.233 8.986,-9.803c5.309,1.429 8.373,-1.838 5.105,-5.718c-1.634,-1.838 -0.817,-4.493 3.064,-10.007c5.718,-8.374 11.028,-10.007 11.028,-3.064c-0,3.472 0.612,3.88 2.45,2.042c3.472,-3.471 3.677,-8.169 0.205,-9.394c-2.451,-1.021 -2.247,-2.451 1.633,-8.782c6.536,-11.028 6.944,-11.436 11.641,-8.577c4.902,3.063 8.578,1.021 4.902,-2.655c-3.881,-3.88 -2.859,-9.19 2.655,-13.479c2.859,-2.246 5.105,-5.31 5.105,-6.943c0,-1.634 2.247,-5.106 4.902,-7.761c2.859,-2.451 5.718,-7.148 6.331,-10.415c0.817,-3.064 2.655,-6.74 4.288,-8.169c1.634,-1.226 2.86,-3.472 2.86,-4.698c-0,-1.429 1.838,-6.331 4.084,-11.028c2.246,-4.493 4.085,-9.803 4.085,-11.641c-0,-1.838 0.816,-2.859 1.838,-2.246c6.739,4.289 -2.451,-23.486 -21.24,-63.514c-3.88,-8.373 -7.148,-16.134 -7.148,-17.155c0,-1.225 -2.655,-8.577 -6.126,-16.542c-3.472,-8.373 -6.127,-17.972 -6.127,-22.873c-0,-4.902 -0.613,-9.191 -1.226,-10.007c-3.267,-3.064 -5.922,4.901 -6.126,16.95c-0,8.782 -1.43,15.93 -3.881,20.423c-6.331,12.253 -7.147,14.091 -7.147,17.359c-0,1.634 -0.817,3.063 -2.043,3.063c-1.021,0 -2.042,1.634 -2.042,3.881c0,2.042 -2.246,5.309 -5.106,7.147c-2.859,1.838 -5.105,4.493 -5.105,6.127c-0,1.43 -2.859,6.127 -6.127,10.416c-6.331,7.964 -6.535,10.415 -2.655,24.098c1.021,3.676 1.225,3.676 4.901,0.204c2.655,-2.246 3.881,-6.126 3.881,-11.64c-0,-7.965 -0,-8.169 4.084,-4.493l4.085,3.676l-4.085,6.943c-2.246,3.881 -4.084,8.169 -4.084,9.599c-0,1.634 -1.43,3.88 -3.268,5.514c-2.655,2.042 -3.472,2.042 -5.31,-0.408c-1.429,-2.043 -1.633,-1.634 -0.817,2.042c3.064,14.5 -33.492,58.408 -64.943,77.81c-6.535,3.88 -11.437,4.901 -28.796,5.718c-21.035,1.021 -21.443,0.817 -36.76,-7.148c-2.247,-1.021 -8.374,-4.289 -13.683,-6.739c-9.803,-4.902 -23.078,-16.543 -32.881,-28.796c-3.063,-3.88 -8.373,-10.211 -11.64,-14.296c-3.472,-4.084 -6.127,-8.577 -6.127,-9.803c-0,-1.429 -1.43,-5.105 -3.064,-8.373c-2.859,-5.31 -2.655,-6.127 0.205,-7.761c2.655,-1.429 2.859,-2.654 1.021,-6.126c-3.268,-5.923 -2.859,-6.944 1.838,-5.514c3.472,1.021 4.084,0.408 4.084,-4.085c0,-5.922 -3.472,-11.232 -19.81,-29.612c-5.922,-6.74 -10.823,-13.479 -10.823,-14.909c-0,-1.634 -2.247,-4.901 -4.902,-7.352c-5.922,-5.718 -8.986,-16.134 -11.232,-40.028c-1.838,-17.972 -1.838,-18.585 4.288,-31.451c10.416,-21.852 20.015,-30.225 50.648,-43.704c2.859,-1.225 7.557,-3.88 10.62,-5.922c6.535,-4.493 10.415,-4.493 24.711,-0.817c5.923,1.633 13.071,2.45 15.93,1.838c2.655,-0.409 8.986,0.408 14.091,2.246c5.514,1.838 9.803,2.451 11.233,1.226c1.225,-1.022 8.169,-2.86 15.317,-4.085c7.352,-1.43 17.359,-3.268 22.464,-4.289c23.078,-4.697 23.078,-4.697 29.409,2.043c3.471,3.471 7.556,6.331 9.598,6.331c1.838,-0 8.782,2.042 15.113,4.492c9.394,3.472 10.824,4.698 7.965,6.331c-1.838,1.022 -8.782,1.43 -15.521,0.817c-14.5,-1.225 -24.303,1.226 -35.944,8.986c-4.901,3.268 -9.803,5.514 -10.824,4.697c-4.084,-2.45 -7.965,3.881 -7.965,13.275c0,8.373 1.021,10.62 7.148,16.542l7.148,6.944l16.951,-17.155c9.19,-9.599 20.014,-18.789 23.894,-20.627c3.88,-1.838 9.599,-4.493 12.662,-5.922c2.859,-1.43 7.556,-2.655 10.415,-2.655c5.923,-0 15.726,6.127 15.726,10.007c-0,5.922 8.986,30.634 12.662,34.514c3.676,3.88 3.676,3.88 3.676,-0.204c-0,-2.247 -1.43,-5.923 -3.064,-8.374c-1.633,-2.246 -5.922,-12.866 -9.394,-23.281c-3.472,-10.62 -9.803,-28.183 -14.296,-39.211c-4.288,-10.824 -7.352,-21.24 -6.739,-22.874c2.042,-4.901 10.007,-3.676 13.07,2.043c1.43,2.859 3.472,5.105 4.493,5.105c2.655,0 1.838,-4.493 -1.634,-8.373c-2.859,-3.063 -2.655,-3.88 2.043,-8.986c5.309,-5.718 5.309,-5.718 10.007,-1.838c2.45,2.042 5.105,4.697 5.922,5.923c1.021,1.225 1.634,0.612 1.634,-1.43c-0,-1.838 -1.43,-4.901 -3.268,-6.535c-3.676,-3.676 -2.246,-7.352 3.064,-7.352c2.246,-0 4.697,3.063 6.943,8.577c2.043,4.902 5.31,12.049 7.353,15.93c6.33,12.253 58.612,116.204 70.661,140.915c15.726,32.063 18.381,39.415 23.486,65.965c2.247,12.662 5.514,29.612 7.148,37.781c3.268,15.521 4.085,44.93 1.43,48.402c-1.838,2.45 -6.74,5.514 -18.789,11.845c-15.521,8.169 -32.268,18.993 -40.641,26.14c-35.331,30.634 -106.605,86.796 -117.021,92.31c-5.922,3.268 -13.479,7.557 -16.95,9.599c-16.134,10.415 -44.317,16.542 -55.141,12.253c-3.268,-1.429 -7.965,-2.859 -10.211,-3.063c-6.944,-1.225 -34.106,-11.028 -39.416,-14.5c-2.655,-1.634 -6.535,-3.472 -8.577,-3.88c-2.247,-0.409 -6.127,-2.655 -8.578,-5.106c-2.45,-2.246 -5.718,-3.676 -7.148,-3.063c-4.901,1.633 -43.499,-18.176 -67.394,-34.719c-6.331,-4.493 -16.542,-11.028 -22.465,-14.295c-5.922,-3.472 -18.38,-11.641 -27.57,-18.381c-9.394,-6.739 -20.218,-13.887 -24.098,-15.929c-3.881,-2.247 -8.578,-5.31 -10.212,-6.74c-1.634,-1.633 -8.577,-7.147 -15.317,-12.662c-28.387,-22.873 -45.542,-48.197 -43.295,-63.105c1.021,-6.127 6.126,-15.317 14.295,-26.141c8.782,-11.845 20.014,-28.183 22.465,-32.88c1.634,-3.268 5.514,-8.169 8.373,-10.824c2.86,-2.859 5.31,-6.127 5.31,-7.352c0,-1.43 2.247,-6.535 4.902,-11.437c7.964,-14.295 14.908,-37.373 25.732,-84.549c2.042,-8.986 4.697,-20.014 5.718,-24.507c2.859,-11.232 15.521,-42.479 22.874,-56.57c3.471,-6.535 6.126,-13.275 6.126,-14.909c0,-3.267 5.719,-13.274 7.557,-13.274c0.408,-0 5.922,5.105 11.845,11.641m17.359,0.612c-0,1.021 -0.817,2.043 -2.042,2.043c-1.022,-0 -2.043,-1.022 -2.043,-2.043c0,-1.225 1.021,-2.042 2.043,-2.042c1.225,0 2.042,0.817 2.042,2.042m84.753,0c0.613,1.021 0.204,2.043 -0.817,2.043c-1.225,-0 -2.246,-1.022 -2.246,-2.043c-0,-1.225 0.408,-2.042 0.817,-2.042c0.612,0 1.633,0.817 2.246,2.042m37.782,7.148c-0,1.43 -1.43,3.676 -3.268,5.31c-2.655,2.042 -3.472,2.042 -5.105,-0.408c-5.923,-8.782 -5.923,-9.191 1.429,-8.374c3.88,0.409 6.944,2.043 6.944,3.472m-27.366,9.599c4.697,9.19 -0,6.535 -5.31,-3.064c-3.676,-6.535 -4.085,-7.964 -1.226,-5.718c1.838,1.634 4.902,5.514 6.536,8.782m13.274,-1.021c2.655,3.267 2.451,3.471 -0.612,0.816c-3.472,-2.654 -4.493,-4.288 -2.86,-4.288c0.409,-0 2.043,1.634 3.472,3.472m10.007,14.908c0,1.021 -0.817,2.042 -2.042,2.042c-1.021,0 -2.042,-1.021 -2.042,-2.042c-0,-1.225 1.021,-2.042 2.042,-2.042c1.225,-0 2.042,0.817 2.042,2.042m-110.281,163.38c-0,1.021 -0.817,2.042 -2.042,2.042c-1.022,0 -2.043,-1.021 -2.043,-2.042c0,-1.225 1.021,-2.042 2.043,-2.042c1.225,-0 2.042,0.817 2.042,2.042m239.556,3.063c-0.613,1.634 -2.247,3.064 -3.881,3.064c-2.45,-0 -2.45,-0.817 -0.408,-3.881c2.655,-4.492 6.127,-3.676 4.289,0.817m-227.711,14.909c0.612,1.838 -0.409,2.655 -2.859,2.042c-1.838,-0.204 -3.881,-1.838 -4.493,-3.268c-0.613,-1.838 0.408,-2.654 2.859,-2.042c1.838,0.204 3.88,1.838 4.493,3.268m4.493,14.704c-0,1.021 -0.409,2.042 -0.817,2.042c-0.613,0 -1.634,-1.021 -2.247,-2.042c-0.612,-1.225 -0.204,-2.042 0.817,-2.042c1.226,-0 2.247,0.817 2.247,2.042m-175.021,111.711c-1.225,20.014 -3.88,25.12 -13.07,25.12c-4.289,-0 -6.536,-1.43 -8.986,-6.127c-1.634,-3.268 -4.698,-6.944 -6.536,-7.965c-3.267,-2.042 -2.859,-3.063 4.085,-9.598c5.922,-5.31 8.577,-6.74 10.211,-5.106c3.88,3.88 7.965,2.655 6.535,-2.042c-1.225,-3.88 3.472,-12.049 7.148,-12.049c0.817,-0 1.021,7.964 0.613,17.767m547.936,2.655c9.802,8.373 10.007,9.599 1.838,19.401c-7.965,10.007 -9.599,10.62 -13.683,6.536c-1.838,-2.043 -2.451,-7.557 -2.043,-19.402c0.817,-18.584 0.205,-18.176 13.888,-6.535m-483.809,39.211c-0,23.486 2.45,48.81 5.105,52.078c3.064,3.676 0.409,8.781 -4.493,8.781c-2.246,0 -4.084,-0.817 -4.084,-1.634c-0,-1.021 -4.289,-4.901 -9.599,-8.577c-13.274,-9.394 -31.246,-24.915 -31.246,-26.958c-0,-3.267 25.324,-26.345 27.979,-25.324c1.633,0.817 3.676,-1.021 4.901,-4.493c2.246,-5.922 7.556,-12.661 10.007,-12.661c0.817,-0 1.43,8.577 1.43,18.788m416.619,-8.577c0.612,2.246 2.042,4.084 3.471,4.084c1.226,0 7.557,6.127 14.296,13.479c11.233,12.458 11.845,13.683 9.395,18.38c-1.634,2.655 -3.268,4.902 -4.085,4.902c-0.817,-0 -4.084,2.246 -7.352,5.105c-10.824,9.395 -23.078,17.36 -23.894,15.93c-0.409,-1.021 0.204,-12.662 1.225,-26.141c1.021,-13.479 1.838,-27.979 1.838,-32.267c-0,-7.965 3.268,-10.416 5.106,-3.472m-344.732,61.676c-0.409,11.232 -7.761,40.436 -10.211,40.436c-2.86,0 -20.219,-7.965 -20.219,-9.19c0,-2.859 5.106,-10.824 13.888,-21.443c5.105,-6.127 10.007,-13.275 11.232,-15.93c3.472,-7.556 5.718,-5.106 5.31,6.127m284.894,8.781c10.415,14.909 12.049,20.014 6.943,21.036c-2.042,0.408 -4.493,-1.43 -6.331,-5.106c-1.838,-3.063 -5.514,-7.965 -8.373,-10.62c-3.676,-3.472 -5.31,-7.148 -5.31,-11.845c0,-3.676 0.817,-6.739 1.838,-6.739c1.021,-0 6.127,5.922 11.233,13.274m-207.901,28.388c0.817,3.471 2.246,7.76 3.471,9.802c1.226,1.838 1.634,4.085 0.817,4.902c-2.042,2.246 -20.831,-6.331 -21.443,-9.803c-0.409,-1.838 1.429,-7.556 3.88,-12.866l4.493,-9.394l3.676,5.718c2.042,3.063 4.289,8.373 5.106,11.641m131.521,-8.169c-0,1.429 1.429,3.88 3.063,5.31c1.634,1.429 3.063,5.105 3.063,8.373c0,4.493 -1.021,5.922 -4.084,5.922c-2.451,0 -6.535,1.43 -9.395,3.268c-2.655,1.838 -5.514,2.859 -6.126,2.246c-1.634,-1.633 3.471,-17.563 6.739,-20.014c1.43,-1.225 2.655,-3.676 2.655,-5.105c0,-1.634 1.021,-2.859 2.042,-2.859c1.226,-0 2.043,1.225 2.043,2.859" style="fill:#1c5964;fill-rule:nonzero;"/><path d="M313.993,133.337c-1.225,3.064 0.204,5.31 3.063,5.31c0.817,0 1.634,-1.838 1.634,-4.084c0,-4.698 -3.063,-5.515 -4.697,-1.226m9.394,2.247c-1.633,4.493 1.226,6.739 3.472,3.063c2.655,-4.084 2.451,-6.127 0,-6.127c-1.225,0 -2.655,1.43 -3.472,3.064m-49.626,-14.705c-0,4.289 7.352,13.684 10.824,13.684c2.859,-0 1.225,-6.74 -2.859,-12.458c-5.106,-7.148 -7.965,-7.557 -7.965,-1.226m-6.127,22.057c0,2.246 1.021,3.472 2.042,2.859c1.226,-0.613 2.043,-2.655 2.043,-4.289c-0,-1.634 -0.817,-2.859 -2.043,-2.859c-1.021,0 -2.042,1.838 -2.042,4.289m20.423,1.225c-0,5.106 7.352,14.909 11.436,14.909c4.901,-0 3.268,-5.106 -4.289,-12.254c-6.331,-6.127 -7.147,-6.535 -7.147,-2.655m1.021,35.944c-2.86,4.901 -5.106,11.028 -5.106,13.683c-0,4.697 -0,4.697 4.289,0.817c4.084,-3.676 12.049,-17.972 12.049,-21.648c0,-4.697 -6.535,-0.409 -11.232,7.148m227.711,-64.127c-1.022,2.247 -2.043,5.718 -1.839,7.761c0,4.493 14.092,25.528 17.768,26.753c2.655,0.817 3.472,-4.901 1.021,-6.127c-2.042,-0.817 -8.986,-18.993 -10.211,-26.753c-1.225,-6.535 -3.676,-7.148 -6.739,-1.634m-11.846,32.268c-4.697,5.718 -7.76,14.295 -6.126,16.133c2.45,2.247 7.148,-2.042 10.415,-9.802c4.493,-10.212 1.838,-14.092 -4.289,-6.331m-2.654,33.492c2.246,6.536 6.943,7.761 5.922,1.634c-0.204,-2.655 -2.246,-5.105 -4.084,-5.514c-3.064,-0.612 -3.268,0.204 -1.838,3.88m-192.789,20.219c-1.634,2.45 0.613,10.211 3.064,10.211c2.042,0 4.288,-8.169 2.859,-10.62c-1.43,-2.246 -4.493,-2.042 -5.923,0.409m-3.267,19.81c-0.409,4.901 -0.817,7.147 -2.247,10.824c-3.268,7.76 -3.063,12.253 0.409,15.316c2.246,2.043 4.697,2.86 5.718,2.247c2.859,-1.634 1.838,-30.43 -1.226,-31.451c-1.429,-0.408 -2.654,1.021 -2.654,3.064m110.485,-14.705c0,1.634 1.021,3.064 2.043,3.064c1.225,-0 2.042,-1.43 2.042,-3.064c-0,-1.633 -0.817,-3.063 -2.042,-3.063c-1.022,0 -2.043,1.43 -2.043,3.063m-155.211,44.93c-1.429,1.838 -2.246,3.676 -1.634,4.084c0.613,0.613 2.247,-0.204 3.677,-2.042c1.429,-1.838 2.246,-3.676 1.633,-4.084c-0.612,-0.613 -2.246,0.204 -3.676,2.042m285.915,5.514c0,1.43 0.817,3.88 1.838,5.514c2.247,3.472 5.106,-0.613 3.472,-4.901c-1.429,-3.676 -5.31,-4.085 -5.31,-0.613m-18.38,13.479c0,5.105 14.092,29 17.155,29c1.634,-0 -4.289,-12.05 -7.965,-16.338c-1.429,-1.634 -3.063,-5.31 -3.472,-7.965c-0.612,-4.697 -5.718,-8.782 -5.718,-4.697m24.507,1.838c0,0.817 1.021,3.063 2.042,4.697c1.634,2.655 2.043,2.655 2.043,-0.408c-0,-1.838 -0.817,-4.085 -2.043,-4.698c-1.021,-0.612 -2.042,-0.612 -2.042,0.409m9.599,23.281c0.816,2.655 1.633,3.677 2.246,2.043c0.409,-1.43 -0.204,-3.676 -1.225,-4.697c-1.634,-1.634 -1.838,-0.817 -1.021,2.654m-242.415,5.719c-8.578,1.838 -16.338,5.718 -16.338,8.373c-0,2.042 3.88,3.268 16.338,4.901c20.626,2.655 25.936,5.31 38.598,18.789c13.887,14.704 20.627,16.747 28.387,8.373c7.352,-7.964 8.986,-14.704 4.493,-20.218c-2.859,-3.676 -4.288,-4.084 -6.331,-2.246c-1.838,1.838 -3.472,1.021 -6.739,-3.881c-6.535,-9.802 -16.951,-14.091 -35.331,-14.908c-8.782,-0.409 -19.197,-0 -23.077,0.817m247.112,7.352c-0,1.634 0.817,3.063 2.042,3.063c1.021,0 1.43,-1.429 0.817,-3.063c-0.817,-1.634 -1.634,-3.063 -2.042,-3.063c-0.409,-0 -0.817,1.429 -0.817,3.063m-16.338,0.817c-0,1.225 1.021,2.655 2.042,3.267c1.225,0.613 2.042,-0.204 2.042,-1.838c0,-1.838 -0.817,-3.267 -2.042,-3.267c-1.021,-0 -2.042,0.817 -2.042,1.838m-239.556,20.014c-2.247,2.042 -1.634,8.782 0.613,8.782c1.021,-0 5.105,-1.634 9.19,-3.472c4.901,-2.451 6.331,-3.881 4.697,-5.106c-3.268,-1.838 -12.662,-2.246 -14.5,-0.204m152.147,11.436c-4.901,4.902 -6.535,8.578 -6.535,13.684c0.204,6.33 0.409,6.739 2.451,3.063c3.063,-5.31 5.718,-8.578 11.437,-14.296c2.654,-2.655 4.288,-5.922 3.471,-6.944c-2.042,-3.471 -3.88,-2.654 -10.824,4.493m53.099,6.536c-3.472,2.859 -7.761,5.105 -9.803,5.105c-3.676,0 -8.373,1.226 -26.549,6.944c-5.923,1.838 -13.479,3.268 -16.951,3.268c-5.105,-0 -6.943,1.225 -8.781,5.514c-1.43,3.267 -4.698,7.76 -7.353,10.415c-4.697,4.493 -4.697,4.901 -1.429,8.782c3.676,3.88 9.19,5.31 9.19,2.246c0,-0.817 0.817,-2.655 1.838,-4.289c1.43,-2.246 2.655,-2.042 6.944,0.613c3.267,2.247 10.211,3.472 19.605,3.88c7.965,0.205 14.5,1.022 14.5,1.634c0,1.838 -5.514,3.881 -10.619,3.881c-2.451,-0 -5.31,1.429 -6.74,3.267c-2.246,3.063 -3.063,2.859 -10.415,-2.042c-7.965,-5.31 -13.071,-6.74 -13.071,-3.472c0,2.859 9.395,11.845 16.134,15.521c6.535,3.268 6.739,3.268 7.761,-1.021c1.021,-3.472 2.45,-4.289 8.577,-3.676c4.085,0.408 6.944,1.43 6.331,2.655c-0.613,1.021 -1.838,1.838 -2.655,1.429c-0.817,-0.204 -2.042,1.022 -2.655,2.655c-0.817,1.634 -3.063,3.064 -5.105,3.064c-5.106,-0 -4.902,3.267 -0,6.127c2.859,1.429 4.288,1.225 4.901,-0.613c0.613,-1.838 2.451,-1.634 8.169,1.021c6.331,3.063 7.556,3.063 9.803,0.408c1.429,-1.633 3.676,-2.655 5.105,-2.042c1.226,0.409 4.289,-1.225 6.74,-3.676c5.105,-5.31 5.31,-7.352 1.225,-7.352c-2.042,0 -1.225,-1.634 2.042,-5.106c5.923,-5.718 6.331,-8.781 2.043,-10.415c-4.698,-1.838 -3.881,-11.028 1.021,-11.028c3.063,-0 4.084,1.429 4.084,5.105c0,2.86 1.021,5.106 2.043,5.106c1.225,0 2.042,-2.859 2.042,-6.127c-0,-3.472 1.021,-7.965 2.45,-10.211c3.472,-5.514 1.226,-6.739 -5.718,-3.063c-3.267,1.633 -6.944,3.063 -7.965,3.063c-3.676,0 -0.817,-15.725 3.268,-19.606c2.042,-1.838 3.88,-5.718 3.88,-8.373c0,-6.331 -6.127,-6.127 -13.887,0.409m-33.289,25.324c1.838,1.225 4.289,1.021 6.535,-0.409c2.86,-1.838 4.289,-1.838 6.331,0.204c4.085,4.085 -5.718,12.662 -14.295,12.662c-6.536,0 -18.789,-5.514 -18.789,-8.373c-0,-1.225 9.803,-4.493 16.338,-5.718c0.613,-0 2.246,0.612 3.88,1.634m27.162,14.908c-1.225,1.225 -3.063,1.634 -3.88,0.817c-0.817,-0.817 -0.204,-2.247 1.429,-3.268c3.881,-2.45 5.515,-0.612 2.451,2.451m3.88,13.275c-1.633,3.063 -2.042,3.063 -2.246,0.408c0,-3.472 2.042,-6.535 3.676,-5.106c0.408,0.613 -0.204,2.655 -1.43,4.698m-225.464,-53.099c-3.268,3.268 -0.817,8.782 6.127,14.5c6.739,5.31 7.352,6.535 4.901,9.394c-2.45,3.064 -2.042,4.289 2.859,9.395c5.514,5.922 16.543,11.641 18.585,9.803c1.838,-1.838 -3.472,-12.458 -7.352,-15.317c-2.247,-1.634 -4.085,-4.289 -4.085,-5.923c0,-3.676 15.726,-1.838 20.831,2.859c2.042,1.634 4.902,2.451 6.535,1.838c1.838,-0.817 3.676,-0.408 4.289,0.613c2.042,3.268 -3.88,10.211 -8.782,10.211c-3.063,0 -4.493,1.021 -3.88,2.451c0.409,1.838 5.106,2.655 13.275,2.655c10.007,-0 13.07,-0.817 15.317,-3.88c2.655,-3.676 2.859,-3.472 1.838,2.45c-0.409,3.472 -2.043,7.557 -3.676,8.782c-1.634,1.225 -2.86,3.676 -2.86,5.31c0,4.289 6.536,2.451 9.191,-2.451c1.225,-2.246 3.88,-6.739 5.922,-9.803c3.268,-4.901 3.472,-6.331 1.225,-10.619c-2.042,-3.881 -2.042,-5.514 0.613,-9.19c2.859,-4.085 2.859,-5.106 -0.204,-11.437c-4.289,-8.578 -7.556,-7.761 -7.556,1.838c-0,4.084 -0.817,7.556 -1.634,7.76c-0.817,0 -5.923,-2.042 -11.028,-4.492c-8.782,-4.289 -23.895,-8.782 -37.782,-11.437c-3.268,-0.613 -5.718,-2.451 -5.718,-4.085c-0,-2.45 -0.613,-2.654 -2.655,-1.021c-1.634,1.43 -3.676,1.43 -5.514,0.409c-3.676,-2.247 -6.944,-2.655 -8.782,-0.613m94.556,14.704c0,1.226 1.021,2.655 2.247,3.268c1.021,0.817 2.859,3.676 3.88,6.331c1.021,2.655 2.859,4.901 4.084,4.901c3.064,0 2.451,-6.739 -1.225,-11.845c-3.063,-4.493 -8.986,-6.127 -8.986,-2.655m36.148,11.845c-0.613,1.43 -0.408,16.747 0.409,21.648c-0,1.021 1.429,1.43 2.859,1.021c3.676,-1.429 4.084,-24.098 0.408,-24.098c-1.634,-0 -3.267,0.612 -3.676,1.429m-130.091,8.782c-0,1.225 -1.634,2.042 -3.472,1.634c-2.451,-0.409 -3.88,0.817 -4.289,3.88c-0.612,3.676 0.409,4.697 3.472,4.697c2.451,0 4.289,-1.225 4.289,-3.063c-0,-1.634 1.021,-3.063 2.042,-3.063c3.063,-0 2.451,5.309 -1.021,8.169c-4.697,3.88 -3.064,11.028 2.655,11.845c3.676,0.612 4.493,2.042 4.493,7.556c-0,6.739 4.288,10.62 8.577,7.965c3.268,-2.043 11.641,3.471 11.233,7.556c-0.205,2.042 0.204,3.676 1.225,3.676c6.331,0.613 7.556,-0.204 7.556,-4.901c0,-2.86 -0.817,-5.106 -2.042,-5.106c-1.021,0 -2.042,-1.225 -2.042,-2.859c-0,-2.247 1.838,-2.655 7.148,-1.838c5.309,0.817 7.147,0.408 7.147,-1.634c0,-5.922 -3.676,-8.577 -10.211,-7.556c-6.127,0.817 -6.331,0.612 -4.901,-4.289c2.655,-10.211 2.246,-11.028 -5.923,-11.641c-5.31,-0.408 -9.598,-2.451 -13.887,-6.739c-6.127,-6.331 -12.049,-8.373 -12.049,-4.289m40.845,18.176c-0,2.655 5.31,6.535 6.739,4.901c2.859,-2.654 1.226,-6.739 -2.655,-6.739c-2.246,0 -4.084,0.817 -4.084,1.838m17.972,15.93c1.429,0.612 3.267,0.408 3.88,-0.205c0.817,-0.612 -0.409,-1.225 -2.655,-1.021c-2.247,0 -2.859,0.613 -1.225,1.226m34.514,12.457c-5.31,5.514 -11.641,20.219 -11.641,26.958c-0,3.676 8.169,12.253 11.845,12.253c1.225,0 3.063,1.226 3.88,2.86c2.451,4.288 24.099,5.309 24.099,1.225c-0,-1.634 -2.655,-4.289 -6.127,-5.923c-3.268,-1.633 -6.74,-3.676 -7.352,-4.697c-1.634,-2.655 -11.845,-7.76 -15.317,-7.76c-3.472,-0 -3.472,-1.634 -0.613,-9.803c1.226,-3.472 3.88,-6.944 6.127,-7.556c2.451,-0.817 3.88,-3.064 3.88,-6.127c0,-7.148 -2.859,-7.761 -8.781,-1.43" style="fill:#1c5964;fill-rule:nonzero;"/><path d="M310.521,429.668c0,1.633 1.021,3.063 2.043,3.063c1.225,0 2.042,-1.43 2.042,-3.063c-0,-1.634 -0.817,-3.064 -2.042,-3.064c-1.022,0 -2.043,1.43 -2.043,3.064m127.641,4.493c0.817,4.288 1.838,10.007 2.451,12.866c0.816,4.493 -0.205,5.514 -6.331,7.76c-4.493,1.634 -8.578,5.106 -10.416,8.578c-6.127,12.049 -2.246,16.338 6.331,7.148c2.655,-2.86 6.535,-5.106 8.578,-5.106c2.654,0 5.514,-3.268 8.781,-8.986c2.655,-5.106 5.31,-8.986 6.127,-8.782c1.43,0.409 1.838,-0.612 1.838,-4.697c0,-3.267 -12.458,-16.338 -15.725,-16.338c-2.655,0 -2.859,1.43 -1.634,7.557m65.76,-4.085c-2.45,2.247 -1.633,4.697 1.43,4.697c1.634,0 3.268,-1.429 4.084,-3.063c1.022,-3.063 -2.859,-4.289 -5.514,-1.634m-170.936,2.655c-2.451,1.634 -2.246,2.042 1.634,2.042c2.451,0 4.493,-1.021 4.493,-2.042c-0,-2.655 -2.247,-2.655 -6.127,0m-148.063,29.204c-0.817,2.042 -1.021,4.289 -0.204,4.902c2.042,2.042 3.676,-0.817 2.655,-4.902c-0.817,-3.472 -0.817,-3.472 -2.451,0m286.323,17.972c-1.838,1.021 -4.493,1.43 -5.718,0.817c-1.021,-0.817 -4.493,0.204 -7.352,2.246c-5.923,3.881 -28.387,5.719 -30.43,2.451c-0.612,-1.021 -2.45,-0.817 -4.288,0.817c-3.676,3.063 -25.528,4.084 -27.366,1.43c-0.613,-1.226 -3.677,-0.613 -7.148,1.225c-8.578,4.493 -21.036,3.88 -26.345,-1.021c-4.085,-3.881 -4.698,-3.881 -7.148,-0.817c-3.881,4.493 -0.409,9.598 8.373,11.641c8.986,2.042 49.218,3.063 51.873,1.225c1.225,-0.817 11.641,-2.451 23.486,-3.676c13.479,-1.43 23.077,-3.676 26.549,-5.923c2.859,-1.838 6.944,-3.471 9.19,-3.471c2.655,-0 4.085,-1.43 4.085,-3.881c-0,-4.697 -2.859,-5.922 -7.761,-3.063m-130.091,4.697c0,4.289 4.289,6.331 6.127,3.064c1.021,-1.43 1.225,-3.472 0.817,-4.289c-1.838,-2.859 -6.944,-1.838 -6.944,1.225m-165.218,6.74c-2.655,9.394 -2.859,23.077 -0.408,26.957c1.021,1.43 2.042,1.838 2.654,1.021c1.226,-2.655 2.043,-35.535 0.817,-35.535c-0.612,0 -2.042,3.472 -3.063,7.557m144.796,-5.719c-0,1.021 1.429,2.247 3.063,3.064c1.838,0.612 3.063,-0 3.063,-1.838c0,-1.634 -1.429,-3.064 -3.063,-3.064c-1.634,0 -3.063,0.817 -3.063,1.838m272.027,7.148c0.409,3.064 1.634,5.31 2.655,5.31c3.064,-0 2.451,-8.782 -0.613,-9.803c-2.042,-0.612 -2.654,0.817 -2.042,4.493m-369.239,18.38c-1.225,3.472 0.409,7.352 3.472,7.352c2.451,0 2.451,-7.556 -0.204,-9.19c-1.225,-0.612 -2.655,0.205 -3.268,1.838m360.049,8.782c-0.817,0.613 -1.429,2.247 -1.429,3.472c-0,1.225 1.021,1.021 2.45,-0.409c1.226,-1.225 1.838,-2.859 1.43,-3.471c-0.613,-0.613 -1.838,-0.409 -2.451,0.408m-185.232,2.042c0,2.247 9.394,8.578 12.866,8.782c5.718,-0 11.641,-3.88 10.416,-6.944c-0.613,-1.838 -4.698,-2.859 -12.254,-2.859c-6.127,0 -11.028,0.409 -11.028,1.021m208.31,7.761c-1.226,1.634 -2.043,4.084 -1.634,5.31c0.408,1.225 2.45,-0 4.288,-3.064c3.676,-5.514 1.634,-7.556 -2.654,-2.246m-33.085,9.803c-3.268,2.655 -5.718,5.922 -5.718,7.556c-0,1.43 -1.634,4.493 -3.472,6.535c-2.451,2.655 -2.655,4.493 -1.225,5.923c2.246,2.246 3.471,0.817 13.887,-15.113c7.352,-11.232 6.127,-12.866 -3.472,-4.901m16.747,18.788c-2.655,2.86 -4.085,5.719 -3.064,6.536c0.817,1.021 2.042,0.408 2.451,-1.022c0.613,-1.429 2.451,-3.88 4.084,-5.718c1.634,-1.634 2.655,-3.472 2.247,-3.88c-0.613,-0.613 -3.064,1.225 -5.718,4.084m-327.782,11.233c-0.817,1.225 -3.063,1.634 -5.309,1.021c-2.655,-0.817 -3.881,-0.409 -3.881,1.634c0,3.063 6.535,5.514 17.972,6.535c7.556,0.817 8.169,-1.43 2.451,-7.148c-4.493,-4.493 -9.19,-5.31 -11.233,-2.042m284.894,2.45c-4.493,4.085 -4.493,4.698 -1.225,5.31c3.472,0.817 11.437,-4.697 11.437,-8.169c-0,-3.063 -5.31,-1.633 -10.212,2.859m-300.21,7.557c-0,3.267 10.211,14.296 14.295,15.521c2.655,0.817 4.085,3.063 4.085,6.331c-0,2.655 0.817,4.901 1.634,4.901c3.471,0 4.288,-2.655 2.042,-6.943c-1.43,-2.247 -2.247,-5.923 -2.042,-7.761c0.408,-2.451 -0.409,-3.063 -3.268,-2.246c-2.655,0.612 -5.514,-1.226 -9.19,-5.31c-5.31,-6.535 -7.556,-7.761 -7.556,-4.493m34.105,11.845c-0.817,0.613 -1.429,4.084 -1.429,7.76c-0,3.472 -1.022,7.352 -2.451,8.782c-1.634,1.634 -1.634,3.063 0.408,5.514c3.268,3.88 6.127,3.88 6.127,0c0,-1.634 1.021,-3.063 2.042,-3.063c1.226,-0 2.043,-1.43 2.043,-3.064c-0,-1.633 -1.43,-3.063 -3.064,-3.063c-4.084,-0 -3.88,-7.352 0.204,-8.986c1.634,-0.613 2.451,-2.042 1.838,-3.268c-1.429,-2.45 -3.88,-2.654 -5.718,-0.612m-52.486,5.514c0,0.408 1.634,2.042 3.676,3.472c3.064,2.655 3.268,2.45 0.613,-0.817c-2.655,-3.268 -4.289,-4.289 -4.289,-2.655m63.31,23.69l-7.148,1.021l7.352,4.493c8.986,5.718 10.007,5.718 10.007,1.021c0,-5.922 -2.859,-7.76 -10.211,-6.535m2.246,24.915c7.353,6.74 16.134,12.254 16.134,10.007c0,-2.45 -15.112,-14.5 -18.38,-14.5c-1.43,0 -0.408,2.043 2.246,4.493m46.768,15.726c0,1.634 8.373,4.697 9.599,3.472c0.408,-0.205 -1.634,-1.634 -4.493,-2.86c-2.86,-1.225 -5.106,-1.633 -5.106,-0.612m-163.38,-36.557c0,1.022 1.43,2.043 3.268,2.043c1.633,-0 2.45,-1.021 1.838,-2.043c-0.613,-1.225 -2.043,-2.042 -3.268,-2.042c-1.021,0 -1.838,0.817 -1.838,2.042" style="fill:#1c5964;fill-rule:nonzero;"/></g></svg>