<?xml version="1.0" encoding="UTF-8" standalone="no"?>
<!DOCTYPE svg PUBLIC "-//W3C//DTD SVG 1.1//EN" "http://www.w3.org/Graphics/SVG/1.1/DTD/svg11.dtd">
<svg width="100%" height="100%" viewBox="0 0 792 782" version="1.1" xmlns="http://www.w3.org/2000/svg" xmlns:xlink="http://www.w3.org/1999/xlink" xml:space="preserve" xmlns:serif="http://www.serif.com/" style="fill-rule:evenodd;clip-rule:evenodd;stroke-linejoin:round;stroke-miterlimit:2;">
    <g transform="matrix(2.04225,0,0,2.04225,-410.393,-408.676)">
        <path d="M383,202C357.2,203.5 335.1,209.3 311.2,220.5C291.1,230.1 272.8,243.3 256.4,260.2C234.7,282.5 221.9,304 210,338C208.1,343.3 204.1,363.9 203.1,373.2C198.4,415.7 209.8,460.6 234.2,496.8C237,500.9 239.8,505 240.6,505.9C241.3,506.8 243.3,509.3 245,511.4C250.5,518.5 257.3,525.3 271.7,538.2C281,546.5 302.1,559.3 319.1,566.9C329,571.3 348.1,577 360,579.2C370.2,581 376.2,581.4 393,581.5C404.3,581.5 416,581.2 419,580.8C428.3,579.5 435.3,578.2 441,576.6C444,575.8 447.6,574.8 449,574.4C455.8,572.6 479,563.4 484.1,560.4C487.2,558.5 490.1,557 490.4,557C491.8,557 508.3,545.9 515.5,540.1C535.1,524.4 548.6,508.6 564.1,483.5C566.6,479.4 570,472.5 574,463.5C575.2,460.7 576.6,457.6 577.1,456.5C577.6,455.4 578.9,451.1 579.9,447C581,442.9 582.5,437.2 583.4,434.5C589,415.2 589.1,374.3 583.5,350.5C582.7,347.1 578.5,332.5 577.5,329.5C575,322.1 567,305 562.9,298.1C560.7,294.7 559,291.5 559,291.2C559,290.9 557.5,288.7 555.8,286.3C545.7,272.8 539.8,265.6 532.3,258.3C491.1,217.7 440.7,198.7 383,202M421.2,206.6C454.1,211.6 485,224.3 509.6,242.9C521,251.5 539,269.2 545,277.8C547.2,280.9 551.3,286.6 554.1,290.5C560.6,299.5 569.9,318.7 574.5,332.4C580,349 581.7,357.3 583.3,377.8C584.5,393.2 584.2,403.7 581.8,418.5C579.3,434.7 575.4,449.9 571.6,458.2C570.2,461.3 569,464.2 569,464.6C569,466.8 551.9,496.8 548.7,500.2C548.1,500.9 545.5,504.2 543.1,507.5C537.5,515.1 520.9,531.3 510.5,539.1C501.5,545.8 487.5,555 486.2,555C485.7,555 484.2,555.8 482.9,556.8C480.7,558.5 457.5,568 455.7,568C455.2,568 453.4,568.6 451.7,569.4C449.9,570.2 447.4,571.1 446,571.3C444.6,571.6 440.1,572.6 436,573.4C431.9,574.3 425.8,575.6 422.5,576.2C416,577.5 376.2,577.9 369.5,576.7C365.6,576 362.2,575.4 350.6,573C333,569.5 307,558.2 288.8,546.1C253.2,522.6 226.1,485.9 213.9,445C208,425 206.6,414.9 206.7,391.5C206.7,367 208.8,354.3 217.1,329.5C220.7,318.9 232.8,295.8 240.4,285.2C252.3,268.6 272.2,248.4 283.2,241.8C285,240.7 286.7,239.5 287,239.1C287.3,238.7 290.4,236.6 294,234.3C314.9,220.9 340.2,211.5 367.5,207C381.9,204.6 407.2,204.4 421.2,206.6" style="fill-rule:nonzero;"/>
        <path d="M368.8,212.5C306.9,221.3 253.7,261.3 227.2,319.1C223.7,326.6 219.1,340.2 216,352C212.4,365.9 210.9,390.2 212.5,411C213.5,423.5 219.1,446.5 223.6,456.9C224.5,458.9 225.6,461.4 226,462.5C231,474.8 237.6,486.2 247.8,499.9C274.5,535.8 314,560.5 359,569.4C412.3,580 468.9,566 511.7,531.6C518.6,526 538.1,505.9 541.5,500.8C543.1,498.4 545.3,495.5 546.4,494.2C552.5,487.3 565.9,461 569.7,448.5C570.5,445.7 572.1,440.6 573.2,437.1C574.2,433.6 575.6,427.1 576.1,422.6C576.7,418.2 577.6,412.4 578.1,409.8C579.4,403.9 579.1,385.6 577.4,371.5C570,309.6 533.7,258.4 476.8,229.6C462.9,222.6 449.9,218.2 432.5,214.4C422.2,212.1 417.6,211.7 399.5,211.4C385.3,211.2 375.3,211.6 368.8,212.5M394.5,224.2C393.9,227.1 388.8,238.9 385.7,244.5C385.1,245.6 384,247.7 383.3,249.2C382.5,250.7 381.4,252.3 380.8,252.6C380.2,253 379.9,252.9 380.2,252.4C380.6,251.5 381.8,248.8 386.4,238.5C387.7,235.7 389.8,230.7 391.1,227.2C393.6,220.6 395.6,218.9 394.5,224.2M402.4,232.3C402.7,233.8 402.6,235 402.1,235C401.6,235 401,233.8 400.7,232.2C400.4,230.7 399.9,228.4 399.5,227L398.8,224.5L400.3,227.1C401,228.5 402,230.8 402.4,232.3M432.2,233.7C432.8,236.3 433.3,239.6 433.5,241C433.9,245.7 434,246 435.3,246C437.3,246 449,252 449,253C449,253.5 447.5,257.4 445.6,261.7C442,270 438.2,275 435.6,275C433.6,275 427,269.2 427,267.5C427,266.8 426.6,266 426.2,265.8C424.4,265.1 411.2,244.3 410.5,241.2C409.9,238.1 410,238 413,238C414.7,238 419.3,239.3 423.2,241C431.3,244.5 431,244.4 431,242.7C431,241.9 429.9,240.8 428.5,240.2C425.9,239 425.9,239.2 429.5,229.1C430.3,227 431.1,228.4 432.2,233.7M363.7,236.9C364.3,242.4 365.2,242.7 372.4,239.6C377.4,237.5 381,237.5 381,239.6C381,244.4 366.7,266.7 360.6,271.4C357.5,273.8 357,273.9 355.8,272.4C355.1,271.6 353.8,270.1 353,269.2C352.2,268.2 349.9,264.4 348,260.7L344.5,253.9L347.4,251.7C349.1,250.5 352,248.6 353.9,247.5C357,245.7 357.6,244.7 358.7,239.5C361.2,227.9 361,228.3 362.1,230.3C362.7,231.2 363.4,234.2 363.7,236.9M398,232.7C398.6,234.3 399.4,236.3 400,237.2C400.5,238.1 401.3,240.8 401.6,243.2C402,245.7 403.7,249.3 405.7,251.9C407.5,254.3 409,256.7 409,257.1C409,258.8 407.5,258 406.5,255.8C405.9,254.5 403.5,252.4 401,251C397.1,248.9 396.8,248.5 398.8,248.2C400.2,248 401,247.2 401,245.9C401,243.6 398.3,242.3 396.7,243.9C395.3,245.3 391.3,245.3 390.5,244C390.1,243.4 391,241 392.4,238.5C393.8,236.1 395,233.2 395,232.1C395,229.1 396.9,229.5 398,232.7M403.7,238.2C403.4,239 403.1,238.7 403.1,237.6C403,236.5 403.3,235.9 403.6,236.3C403.9,236.6 404,237.5 403.7,238.2M337.6,245.7C338.4,249.9 345.5,265.7 349.4,271.9C351.6,275.3 351.8,276.4 351,278.1C350.4,279.2 350,281.6 350.2,283.3C350.3,285.3 349.5,288.4 347.8,291.5C346.4,294.3 344.4,299.2 343.5,302.3C342.6,305.4 341.5,308 341.1,308C340.6,308 339.5,305.6 338.6,302.7C337.7,299.9 336.1,296.1 335,294.5C332.6,290.9 332.5,289.6 334.5,290.4C337.3,291.4 336.1,286.9 332.4,282.1C332.2,281.9 331.4,282.3 330.6,282.9C329.4,283.9 328.8,283.6 327.5,281C326,278.1 326,277.4 328.4,268.2C329.8,262.9 331.5,256.7 332.3,254.5C333.1,252.3 334.1,248.6 334.5,246.2C335.3,241 336.7,240.8 337.6,245.7M411.9,254.5C412,256.1 408.3,249.7 407.6,247C407.2,245.6 408,246.5 409.4,249C410.8,251.5 411.9,253.9 411.9,254.5M457.4,252.5C458.3,255.5 459.5,258.2 460,258.5C460.6,258.8 461,260.2 461,261.6C461,262.9 461.4,264 461.9,264C462.9,264 463.9,268.9 464.6,277.5C465.1,283.2 464.9,284 461.1,290.6C457.6,296.6 457,298.6 457,303.4C457,310.9 455,310.8 452,303.2C450.9,300.3 450.9,299.8 452.9,298.1C454,297.1 455,295.7 455,295C455,294.3 456.1,292.5 457.5,290.8C458.9,289.2 460,287.1 460,286.3C460,285.4 460.7,283.9 461.6,282.9C462.6,281.8 462.8,281 462.1,280.5C461.5,280.2 460.6,280.9 460.1,282.2C459.6,283.5 458.3,285.4 457.1,286.4C456,287.5 455,288.9 455,289.6C455,290.3 454,291.5 452.8,292.1C451.5,292.8 450,294 449.4,294.8C448.6,295.9 447.9,295.4 445.6,292.1C443.5,289.1 442.7,286.6 442.4,282.3C442.1,277.3 442.5,275.8 445.4,270.5C447.3,267.2 449.1,262.9 449.5,261C449.9,259.1 450.8,256.1 451.5,254.5C452.2,252.8 453.1,250.2 453.4,248.7C454.3,244.9 455.6,246.1 457.4,252.5M393.6,249.9C393.3,250.3 391.7,251.3 390.2,251.9C388.6,252.6 386.8,254.2 386.2,255.6C385,258.1 383,258.9 383,256.8C383,256.2 384.1,254.2 385.6,252.3C387.4,249.9 388.9,249 391.1,249C392.8,249 393.9,249.4 393.6,249.9M402.8,256.7C404.6,258.6 405,260.3 405,265C405,272 406.2,273.5 412.2,274.4C414.8,274.8 417.7,276.1 419.2,277.5C420.7,278.9 422.4,280 423.1,280C423.9,280 423.9,280.4 423,281.5C422,282.7 422,283.3 423,284.5C423.9,285.5 423.9,286.7 423.2,288.7C422.5,290.5 422.1,290.8 422.1,289.7C422,287.4 420.5,287.5 416.8,290.1C414.1,292.1 413.5,292.1 409.9,291C404.6,289.2 403.2,287.5 405.9,285.8C408.3,284.3 408.7,281.5 406.7,280.3C404.2,278.8 399,270.7 399,268.3C399,265.2 395.4,265.1 394.6,268.2C393.6,272.4 388.6,278.9 385.8,279.9C382.3,281.1 382.3,282 385.6,285.9C388.6,289.5 388.2,290.6 383.2,292C375.3,294.2 371,292.9 371,288.3C371,286.7 370.4,286 369,286C366.4,286 366.4,283.3 369,282.5C370.1,282.1 371.7,280.6 372.5,279C374.5,275.1 377.3,273.8 381.4,274.6C384.3,275.1 384.9,274.9 385.5,273.1C386.3,270.5 385.4,269 382.9,269C381.7,269 381,268.3 381,267C381,265.9 381.4,265 382,265C382.5,265 383.8,263.3 384.7,261.3C385.7,259.2 387.7,256.9 389.3,256.2C390.8,255.5 392,254.5 392,253.9C392,252.1 400.4,254.3 402.8,256.7M416.3,259.7L418,263.5L415.5,260.5C412.9,257.4 412.4,256 413.8,256C414.3,256 415.4,257.7 416.3,259.7M320.3,262.1C322.6,267.4 323.4,271.5 322.6,273.6C321.6,276.3 320.2,274.1 319.1,268C318.6,265 317.9,261.5 317.5,260.2C316.3,256.4 318.4,257.8 320.3,262.1M413.1,263.5C416,263.5 417.2,267.5 414.3,267.6C413.3,267.7 411.8,267.9 411,268.1C409.9,268.4 409.4,267.4 409.3,264C409.1,260.9 409.3,260.1 409.9,261.5C410.4,262.7 411.7,263.5 413.1,263.5M468.4,265.3C469,266.2 469.1,267.2 468.7,267.6C467.8,268.5 465,266.1 465,264.3C465,262.5 467,263.1 468.4,265.3M379.5,265C379.2,265.5 378.5,266 377.9,266C377.4,266 377,265.5 377,265C377,264.4 377.7,264 378.6,264C379.4,264 379.8,264.4 379.5,265M473.7,265.7C473.4,266.7 472.9,269.6 472.5,272.3C472.2,274.9 471.5,276.8 470.9,276.5C469.4,275.5 469.9,269 471.8,266.5C473.8,263.6 474.3,263.4 473.7,265.7M423.1,275.1C424.4,277.7 423.8,277.5 420.9,274.4C419.2,272.5 419,272.1 420.3,272.6C421.3,272.9 422.5,274.1 423.1,275.1M398,274.9C398,275.4 399.1,277.2 400.5,278.9L403.1,281.9L399.8,286.9C396.7,291.6 394.2,293.4 393.9,291C393.8,290.4 393.7,289.4 393.6,288.7C393.6,288.1 392.5,287.1 391.3,286.5C387.9,285.1 387.6,282.9 390.4,280.6C391.7,279.4 393.3,277.5 393.9,276.2C395,274.1 398,273.1 398,274.9M361.5,278C361.2,278.5 361.8,279 362.9,279C364.1,279 365,279.6 365,280.2C365,280.9 365.3,282.6 365.7,283.9C366.2,286 366,286.2 364.2,285.8C363,285.4 362,285.6 362,286.1C362,286.6 362.5,287 363,287C363.6,287 364,287.6 364,288.4C364,289.2 367.4,293.2 371.5,297.3C375.6,301.5 379,305.1 379,305.5C379,305.8 379.5,306.6 380,307.3C382.7,310.4 385.7,315.8 384.6,315.4C384,315.2 382.2,313 380.7,310.7C377.8,306.2 361.7,289.5 358.8,287.9C356.7,286.8 356.3,280.1 358.2,278.2C359.6,276.8 362.4,276.6 361.5,278M432,282.2C432,283.9 431.7,284 430.5,283C429.7,282.3 429,280.9 429,279.8C429,278.1 429.3,278 430.5,279C431.3,279.7 432,281.1 432,282.2M440.3,292.6C441.3,293.9 444.8,300.1 448,306.4L453.9,317.7L449.9,320.3C444.5,323.8 442.3,323.9 444.5,320.6C446,318.3 446,318.1 444,317C442.9,316.4 442.2,315.5 442.4,315.1C443,314.2 441.2,296.9 440.4,296.1C440.2,295.8 439.3,296.3 438.6,297.1C437.5,298.2 437.4,299.8 438.1,304.5C438.6,307.8 438.7,311.8 438.3,313.5C437.9,315.1 437.7,317 437.8,317.6C437.9,318.2 437.1,319.5 436,320.5C433,323.3 433.6,324.1 438.2,323.4C443.5,322.5 442.6,324.2 436.2,327C428.8,330.3 420.9,332.7 415,333.5C412,333.8 407.6,334.9 405.2,335.7C402.9,336.6 400.7,337 400.3,336.7C399.2,335.5 402.2,333 404.9,333C408.6,332.9 430.3,325.5 430.8,324.1C431.3,322.6 419.2,323.7 417.2,325.3C414.8,327.2 414.6,325 416.8,321.1C418,319 419.7,315.9 420.5,314.4C421.3,312.8 424.9,308.6 428.5,304.9C434.7,298.5 436.5,295 433.6,295C430.9,295 415,315.5 415,319.1C415,319.6 414.6,320 414.2,320C413.7,320 412.4,321.8 411.2,323.9C409.1,327.7 407.3,329 404.5,329C401.1,329 416.1,306.2 426.8,295C433,288.6 436.9,287.9 440.3,292.6M359.4,294.6C361.5,297 362.8,299 362.1,299C361.5,299 361,298.5 361,298C361,297.4 360.1,297 359,297C357.9,297 357,297.3 357,297.7C357.1,299.2 362.3,302.3 365.1,302.5C368.2,302.7 370.6,304.3 372.1,307.3C373,308.9 372.9,309.1 371.1,308.5C368.3,307.6 368.4,308.3 372,313.5C373.7,315.9 375,318.4 375,319C375,319.7 376.1,321.6 377.5,323.2C378.9,324.9 379.9,326.4 379.7,326.6C379.5,326.8 376.9,326.5 373.9,326C370.9,325.4 367.2,324.7 365.7,324.5C364.1,324.3 362.2,323.6 361.5,323C360.1,321.8 358,322.4 358,324C358,324.5 359,325.1 360.3,325.5C361.5,325.8 363.4,326.5 364.5,327C370,329.3 380.4,332.1 385.6,332.8C390.2,333.3 391.6,333.9 391.8,335.4C392.1,337 391.8,337.2 389.3,336.6C387.8,336.2 385.2,335.7 383.5,335.4C381.9,335.2 377.2,334.4 373.2,333.8C369.2,333.2 365.7,332.3 365.4,331.9C365.2,331.5 362.8,330.8 360.2,330.4C357.6,330.1 354.6,328.9 353.5,327.9C352.4,326.9 350.3,325.7 348.7,325.1C345.6,323.9 344.4,321.8 345.6,319.2C346,318.3 346.3,317.2 346.2,316.8C344.9,310.6 347.8,300.5 353.7,290.7C354.5,289.4 355.4,290.1 359.4,294.6M403.6,291.5C404,292.3 403.7,293.7 403,294.5C402,295.7 402,296.3 403,297.5C404,298.7 404.5,298.8 405.1,297.9C405.7,296.9 406.2,296.9 407.4,297.9C409.6,299.8 409.4,303.7 407,305C405.9,305.6 405,306.7 405,307.4C405,308.9 400.8,311 397.9,311C395.2,311 390,307.3 389.1,304.6C388.6,303.3 388.8,301.3 389.8,299.2C391.6,295.6 392.2,295.3 394,297.5C396,299.9 396.9,299.3 399,294.5C401,289.9 402.6,288.8 403.6,291.5M467.4,292.2C468.7,297.1 469.3,308 468.2,308C467.6,308 467,307.5 466.8,306.8C466.6,306.2 465.8,306 465.2,306.4C464.5,306.8 464.2,308 464.5,309C464.9,310.2 464.3,311.4 462.9,312.4C460.2,314.3 458.7,313.4 461.3,311.5C463,310.3 463,310.1 461.5,309.2C460,308.4 459.9,307.6 460.9,303.2C462.1,297.6 465.1,290 466.1,290C466.5,290 467,291 467.4,292.2M391,293.1C391,293.6 390.6,294 390,294C389.5,294 389,293.3 389,292.4C389,291.6 389.5,291.2 390,291.5C390.6,291.8 391,292.5 391,293.1M332,301.4C332,303.1 331.5,305.2 331,306C330.3,307.2 329.8,306.7 328.5,303.8C326.7,299.3 326.6,296.3 328.3,295.7C330.1,295 332,297.9 332,301.4M382,299.4C382,300.1 382.7,301.3 383.5,302C384.5,302.9 385,302.9 385,302.1C385,301.5 385.5,301 386.1,301C386.9,301 386.9,301.4 386,302.5C385,303.7 385.4,304.7 387.9,308.2C393,315.1 391.4,314.8 384.5,307.4C377.7,300.2 376.7,298 380,298C381.1,298 382,298.6 382,299.4M415,299C415,299.5 414.6,300 414,300C413.5,300 413,299.5 413,299C413,298.4 413.5,298 414,298C414.6,298 415,298.4 415,299M336.5,310C336.8,310.5 336.6,311 336.1,311C335.5,311 335,310.5 335,310C335,309.4 335.2,309 335.4,309C335.7,309 336.2,309.4 336.5,310M330.5,316.7C333.5,319.8 335.7,322.7 335.4,323.2C334.3,324.9 336.1,326 338.1,324.7C342.5,322 342.6,328.3 338.3,340.5C336.9,344.3 335.4,349.6 335,352.1C334.5,354.6 333.4,358.4 332.5,360.6C331.6,362.7 330.2,367.6 329.4,371.3C328.7,375 327.4,379.3 326.6,380.8C323.8,386.3 318.2,402.9 314.4,417C312.6,423.5 311.8,429.4 311.7,435.7C311.6,440.8 311.2,445 310.8,445C310.4,445 310.3,445.7 310.7,446.6C311,447.4 311.9,447.9 312.7,447.6C314.3,446.9 318,450.4 318,452.5C318,453.3 318.5,454 319,454C319.6,454 320,454.7 320,455.5C320,456.3 321,458 322.3,459.3C325.5,462.8 330.3,471 329.6,471.7C329.3,472.1 327.9,471.8 326.4,471.2C324.7,470.4 323.3,470.3 322,471C319.1,472.6 318.9,472.3 319.4,466.4C319.7,463.3 319.6,460.2 319.3,459.4C318.6,457.5 316.3,457.6 315,459.7C314.2,461 313.7,461.1 313.4,460.2C312.5,458.1 311,458.9 311,461.4C311,464.4 312.5,465.6 313.4,463.4C314.3,461 317,463.5 317,466.7C317,468.8 316.6,469.2 314.6,468.8L312.2,468.3L314,472.2C316.3,477.4 317.9,479 317.2,475.5C316.7,472.9 316.8,472.8 320.1,473.5C322,473.9 325.3,474.3 327.6,474.4C332.8,474.7 335.4,476.5 339.5,483.1C343.3,489.1 343.7,489.6 346.4,492.8C348.2,494.9 348.2,495.1 346.7,496.3C345.5,497.1 345.3,497.9 346,499C346.8,500.2 347.3,500.3 349,499.2C350.1,498.6 351.4,498 351.8,498C353.3,498 354.8,502.5 354.3,505.3C353.9,507.3 354.2,508 355.4,508C356.4,508 357,507.2 357,505.8C357,503.7 357.1,503.7 358.7,505.2C360,506.6 360.1,507.2 359.1,508.4C358.1,509.6 358.2,510 359.6,510.8C361.1,511.7 361.2,512.1 360.1,513.4C358.3,515.6 357.1,515.4 354.4,512.5C352,509.9 351,509.4 351,510.9C351,512.4 357,518 358.5,518C359.3,518 360.3,518.7 360.8,519.7C361.4,520.6 362.4,521.1 363.3,520.7C364.9,520.1 364.9,518.9 363.5,515.7C363.1,514.7 363,513.6 363.3,513.3C363.7,513 363.5,511.9 362.9,510.8C361.9,509 362,508.9 364.8,510.4C368.5,512.3 370.5,514.8 370.5,517.4C370.5,518.7 371.2,519.6 372.5,519.8C373.6,520 375.4,520.5 376.5,521C377.6,521.4 379.3,522.1 380.3,522.4C383.5,523.4 382.2,525.2 378.8,524.5C375.8,524 375.7,524 377.3,525.4C378.3,526.2 381.5,527.1 384.3,527.5C387.2,527.9 390.7,528.9 392.3,529.6C393.8,530.4 395,530.8 395,530.4C395,530.1 396.1,530.5 397.4,531.3C401.1,533.8 413.6,532 418,528.5C418.8,527.8 421.2,526.7 423.3,526C425.3,525.4 427,524.4 427,523.9C427,523.4 427.6,523 428.3,523C428.9,523 431.5,520.6 433.9,517.7C436.3,514.7 439.5,511.5 441.1,510.5C442.6,509.4 444.1,507.6 444.4,506.3C444.8,505 445.9,504 447.3,503.8C449,503.6 449.4,502.9 449.2,501.2C448.7,498 450.8,495.7 453.6,496.4C456.2,497.1 457.7,495.5 456.1,493.6C455.3,492.7 455.7,491.4 457.6,488.7C460.4,484.6 463,483.8 463,487.2C463,488.9 463.3,489.1 464.2,488.2C465.9,486.5 466,484.2 464.3,483.6C463.1,483.1 463.2,482.4 465.1,479.3C468.3,473.9 468.5,473.7 470.8,475.1C473.2,476.6 475,475.6 473.2,473.8C471.3,471.9 471.8,469.3 474.5,467.2C475.9,466.1 477,464.6 477,463.8C477,463 478.1,461.3 479.4,460C480.8,458.8 482.2,456.5 482.5,454.9C482.9,453.4 483.8,451.6 484.6,450.9C485.4,450.3 486,449.2 486,448.6C486,447.9 486.9,445.5 488,443.2C489.1,441 490,438.4 490,437.5C490,436.6 490.4,436.1 490.9,436.4C494.2,438.5 489.7,424.9 480.5,405.3C478.6,401.2 477,397.4 477,396.9C477,396.3 475.7,392.7 474,388.8C472.3,384.7 471,380 471,377.6C471,375.2 470.7,373.1 470.4,372.7C468.8,371.2 467.5,375.1 467.4,381C467.4,385.3 466.7,388.8 465.5,391C462.4,397 462,397.9 462,399.5C462,400.3 461.6,401 461,401C460.5,401 460,401.8 460,402.9C460,403.9 458.9,405.5 457.5,406.4C456.1,407.3 455,408.6 455,409.4C455,410.1 453.6,412.4 452,414.5C448.9,418.4 448.8,419.6 450.7,426.3C451.2,428.1 451.3,428.1 453.1,426.4C454.4,425.3 455,423.4 455,420.7C455,416.8 455,416.7 457,418.5L459,420.3L457,423.7C455.9,425.6 455,427.7 455,428.4C455,429.2 454.3,430.3 453.4,431.1C452.1,432.1 451.7,432.1 450.8,430.9C450.1,429.9 450,430.1 450.4,431.9C451.9,439 434,460.5 418.6,470C415.4,471.9 413,472.4 404.5,472.8C394.2,473.3 394,473.2 386.5,469.3C385.4,468.8 382.4,467.2 379.8,466C375,463.6 368.5,457.9 363.7,451.9C362.2,450 359.6,446.9 358,444.9C356.3,442.9 355,440.7 355,440.1C355,439.4 354.3,437.6 353.5,436C352.1,433.4 352.2,433 353.6,432.2C354.9,431.5 355,430.9 354.1,429.2C352.5,426.3 352.7,425.8 355,426.5C356.7,427 357,426.7 357,424.5C357,421.6 355.3,419 347.3,410C344.4,406.7 342,403.4 342,402.7C342,401.9 340.9,400.3 339.6,399.1C336.7,396.3 335.2,391.2 334.1,379.5C333.2,370.7 333.2,370.4 336.2,364.1C341.3,353.4 346,349.3 361,342.7C362.4,342.1 364.7,340.8 366.2,339.8C369.4,337.6 371.3,337.6 378.3,339.4C381.2,340.2 384.7,340.6 386.1,340.3C387.4,340.1 390.5,340.5 393,341.4C395.7,342.3 397.8,342.6 398.5,342C399.1,341.5 402.5,340.6 406,340C409.6,339.3 414.5,338.4 417,337.9C428.3,335.6 428.3,335.6 431.4,338.9C433.1,340.6 435.1,342 436.1,342C437,342 440.4,343 443.5,344.2C448.1,345.9 448.8,346.5 447.4,347.3C446.5,347.8 443.1,348 439.8,347.7C432.7,347.1 427.9,348.3 422.2,352.1C419.8,353.7 417.4,354.8 416.9,354.4C414.9,353.2 413,356.3 413,360.9C413,365 413.5,366.1 416.5,369L420,372.4L428.3,364C432.8,359.3 438.1,354.8 440,353.9C441.9,353 444.7,351.7 446.2,351C447.6,350.3 449.9,349.7 451.3,349.7C454.2,349.7 459,352.7 459,354.6C459,357.5 463.4,369.6 465.2,371.5C467,373.4 467,373.4 467,371.4C467,370.3 466.3,368.5 465.5,367.3C464.7,366.2 462.6,361 460.9,355.9C459.2,350.7 456.1,342.1 453.9,336.7C451.8,331.4 450.3,326.3 450.6,325.5C451.6,323.1 455.5,323.7 457,326.5C457.7,327.9 458.7,329 459.2,329C460.5,329 460.1,326.8 458.4,324.9C457,323.4 457.1,323 459.4,320.5C462,317.7 462,317.7 464.3,319.6C465.5,320.6 466.8,321.9 467.2,322.5C467.7,323.1 468,322.8 468,321.8C468,320.9 467.3,319.4 466.4,318.6C464.6,316.8 465.3,315 467.9,315C469,315 470.2,316.5 471.3,319.2C472.3,321.6 473.9,325.1 474.9,327C478,333 503.6,383.9 509.5,396C517.2,411.7 518.5,415.3 521,428.3C522.1,434.5 523.7,442.8 524.5,446.8C526.1,454.4 526.5,468.8 525.2,470.5C524.3,471.7 521.9,473.2 516,476.3C508.4,480.3 500.2,485.6 496.1,489.1C478.8,504.1 443.9,531.6 438.8,534.3C435.9,535.9 432.2,538 430.5,539C422.6,544.1 408.8,547.1 403.5,545C401.9,544.3 399.6,543.6 398.5,543.5C395.1,542.9 381.8,538.1 379.2,536.4C377.9,535.6 376,534.7 375,534.5C373.9,534.3 372,533.2 370.8,532C369.6,530.9 368,530.2 367.3,530.5C364.9,531.3 346,521.6 334.3,513.5C331.2,511.3 326.2,508.1 323.3,506.5C320.4,504.8 314.3,500.8 309.8,497.5C305.2,494.2 299.9,490.7 298,489.7C296.1,488.6 293.8,487.1 293,486.4C292.2,485.6 288.8,482.9 285.5,480.2C271.6,469 263.2,456.6 264.3,449.3C264.8,446.3 267.3,441.8 271.3,436.5C275.6,430.7 281.1,422.7 282.3,420.4C283.1,418.8 285,416.4 286.4,415.1C287.8,413.7 289,412.1 289,411.5C289,410.8 290.1,408.3 291.4,405.9C295.3,398.9 298.7,387.6 304,364.5C305,360.1 306.3,354.7 306.8,352.5C308.2,347 314.4,331.7 318,324.8C319.7,321.6 321,318.3 321,317.5C321,315.9 323.8,311 324.7,311C324.9,311 327.6,313.5 330.5,316.7M339,317C339,317.5 338.6,318 338,318C337.5,318 337,317.5 337,317C337,316.4 337.5,316 338,316C338.6,316 339,316.4 339,317M380.5,317C380.8,317.5 380.6,318 380.1,318C379.5,318 379,317.5 379,317C379,316.4 379.2,316 379.4,316C379.7,316 380.2,316.4 380.5,317M399,320.5C399,321.2 398.3,322.3 397.4,323.1C396.1,324.1 395.7,324.1 394.9,322.9C392,318.6 392,318.4 395.6,318.8C397.5,319 399,319.8 399,320.5M385.6,325.2C387.9,329.7 385.6,328.4 383,323.7C381.2,320.5 381,319.8 382.4,320.9C383.3,321.7 384.8,323.6 385.6,325.2M392.1,324.7C393.4,326.3 393.3,326.4 391.8,325.1C390.1,323.8 389.6,323 390.4,323C390.6,323 391.4,323.8 392.1,324.7M397,332C397,332.5 396.6,333 396,333C395.5,333 395,332.5 395,332C395,331.4 395.5,331 396,331C396.6,331 397,331.4 397,332M343,412C343,412.5 342.6,413 342,413C341.5,413 341,412.5 341,412C341,411.4 341.5,411 342,411C342.6,411 343,411.4 343,412M460.3,413.5C460,414.3 459.2,415 458.4,415C457.2,415 457.2,414.6 458.2,413.1C459.5,410.9 461.2,411.3 460.3,413.5M348.8,420.8C349.1,421.7 348.6,422.1 347.4,421.8C346.5,421.7 345.5,420.9 345.2,420.2C344.9,419.3 345.4,418.9 346.6,419.2C347.5,419.3 348.5,420.1 348.8,420.8M351,428C351,428.5 350.8,429 350.6,429C350.3,429 349.8,428.5 349.5,428C349.2,427.4 349.4,427 349.9,427C350.5,427 351,427.4 351,428M265.3,482.7C264.7,492.5 263.4,495 258.9,495C256.8,495 255.7,494.3 254.5,492C253.7,490.4 252.2,488.6 251.3,488.1C249.7,487.1 249.9,486.6 253.3,483.4C256.2,480.8 257.5,480.1 258.3,480.9C260.2,482.8 262.2,482.2 261.5,479.9C260.9,478 263.2,474 265,474C265.4,474 265.5,477.9 265.3,482.7M533.6,484C538.4,488.1 538.5,488.7 534.5,493.5C530.6,498.4 529.8,498.7 527.8,496.7C526.9,495.7 526.6,493 526.8,487.2C527.2,478.1 526.9,478.3 533.6,484M296.7,503.2C296.7,514.7 297.9,527.1 299.2,528.7C300.7,530.5 299.4,533 297,533C295.9,533 295,532.6 295,532.2C295,531.7 292.9,529.8 290.3,528C283.8,523.4 275,515.8 275,514.8C275,513.2 287.4,501.9 288.7,502.4C289.5,502.8 290.5,501.9 291.1,500.2C292.2,497.3 294.8,494 296,494C296.4,494 296.7,498.2 296.7,503.2M500.7,499C501,500.1 501.7,501 502.4,501C503,501 506.1,504 509.4,507.6C514.9,513.7 515.2,514.3 514,516.6C513.2,517.9 512.4,519 512,519C511.6,519 510,520.1 508.4,521.5C503.1,526.1 497.1,530 496.7,529.3C496.5,528.8 496.8,523.1 497.3,516.5C497.8,509.9 498.2,502.8 498.2,500.7C498.2,496.8 499.8,495.6 500.7,499M331.9,529.2C331.7,534.7 328.1,549 326.9,549C325.5,549 317,545.1 317,544.5C317,543.1 319.5,539.2 323.8,534C326.3,531 328.7,527.5 329.3,526.2C331,522.5 332.1,523.7 331.9,529.2M471.4,533.5C476.5,540.8 477.3,543.3 474.8,543.8C473.8,544 472.6,543.1 471.7,541.3C470.8,539.8 469,537.4 467.6,536.1C465.8,534.4 465,532.6 465,530.3C465,528.5 465.4,527 465.9,527C466.4,527 468.9,529.9 471.4,533.5M369.6,547.4C370,549.1 370.7,551.2 371.3,552.2C371.9,553.1 372.1,554.2 371.7,554.6C370.7,555.7 361.5,551.5 361.2,549.8C361,548.9 361.9,546.1 363.1,543.5L365.3,538.9L367.1,541.7C368.1,543.2 369.2,545.8 369.6,547.4M434,543.4C434,544.1 434.7,545.3 435.5,546C436.3,546.7 437,548.5 437,550.1C437,552.3 436.5,553 435,553C433.8,553 431.8,553.7 430.4,554.6C429.1,555.5 427.7,556 427.4,555.7C426.6,554.9 429.1,547.1 430.7,545.9C431.4,545.3 432,544.1 432,543.4C432,542.6 432.5,542 433,542C433.6,542 434,542.6 434,543.4" style="fill-rule:nonzero;"/>
        <path d="M354.7,265.4C354.1,266.9 354.8,268 356.2,268C356.6,268 357,267.1 357,266C357,263.7 355.5,263.3 354.7,265.4M359.3,266.5C358.5,268.7 359.9,269.8 361,268C362.3,266 362.2,265 361,265C360.4,265 359.7,265.7 359.3,266.5M335,259.3C335,261.4 338.6,266 340.3,266C341.7,266 340.9,262.7 338.9,259.9C336.4,256.4 335,256.2 335,259.3M332,270.1C332,271.2 332.5,271.8 333,271.5C333.6,271.2 334,270.2 334,269.4C334,268.6 333.6,268 333,268C332.5,268 332,268.9 332,270.1M342,270.7C342,273.2 345.6,278 347.6,278C350,278 349.2,275.5 345.5,272C342.4,269 342,268.8 342,270.7M342.5,288.3C341.1,290.7 340,293.7 340,295C340,297.3 340,297.3 342.1,295.4C344.1,293.6 348,286.6 348,284.8C348,282.5 344.8,284.6 342.5,288.3M454,256.9C453.5,258 453,259.7 453.1,260.7C453.1,262.9 460,273.2 461.8,273.8C463.1,274.2 463.5,271.4 462.3,270.8C461.3,270.4 457.9,261.5 457.3,257.7C456.7,254.5 455.5,254.2 454,256.9M448.2,272.7C445.9,275.5 444.4,279.7 445.2,280.6C446.4,281.7 448.7,279.6 450.3,275.8C452.5,270.8 451.2,268.9 448.2,272.7M446.9,289.1C448,292.3 450.3,292.9 449.8,289.9C449.7,288.6 448.7,287.4 447.8,287.2C446.3,286.9 446.2,287.3 446.9,289.1M352.5,299C351.7,300.2 352.8,304 354,304C355,304 356.1,300 355.4,298.8C354.7,297.7 353.2,297.8 352.5,299M350.9,308.7C350.7,311.1 350.5,312.2 349.8,314C348.2,317.8 348.3,320 350,321.5C351.1,322.5 352.3,322.9 352.8,322.6C354.2,321.8 353.7,307.7 352.2,307.2C351.5,307 350.9,307.7 350.9,308.7M405,301.5C405,302.3 405.5,303 406,303C406.6,303 407,302.3 407,301.5C407,300.7 406.6,300 406,300C405.5,300 405,300.7 405,301.5M329,323.5C328.3,324.4 327.9,325.3 328.2,325.5C328.5,325.8 329.3,325.4 330,324.5C330.7,323.6 331.1,322.7 330.8,322.5C330.5,322.2 329.7,322.6 329,323.5M469,326.2C469,326.9 469.4,328.1 469.9,328.9C471,330.6 472.4,328.6 471.6,326.5C470.9,324.7 469,324.5 469,326.2M460,332.8C460,335.3 466.9,347 468.4,347C469.2,347 466.3,341.1 464.5,339C463.8,338.2 463,336.4 462.8,335.1C462.5,332.8 460,330.8 460,332.8M472,333.7C472,334.1 472.5,335.2 473,336C473.8,337.3 474,337.3 474,335.8C474,334.9 473.6,333.8 473,333.5C472.5,333.2 472,333.2 472,333.7M476.7,345.1C477.1,346.4 477.5,346.9 477.8,346.1C478,345.4 477.7,344.3 477.2,343.8C476.4,343 476.3,343.4 476.7,345.1M358,347.9C353.8,348.8 350,350.7 350,352C350,353 351.9,353.6 358,354.4C368.1,355.7 370.7,357 376.9,363.6C383.7,370.8 387,371.8 390.8,367.7C394.4,363.8 395.2,360.5 393,357.8C391.6,356 390.9,355.8 389.9,356.7C389,357.6 388.2,357.2 386.6,354.8C383.4,350 378.3,347.9 369.3,347.5C365,347.3 359.9,347.5 358,347.9M479,351.5C479,352.3 479.4,353 480,353C480.5,353 480.7,352.3 480.4,351.5C480,350.7 479.6,350 479.4,350C479.2,350 479,350.7 479,351.5M471,351.9C471,352.5 471.5,353.2 472,353.5C472.6,353.8 473,353.4 473,352.6C473,351.7 472.6,351 472,351C471.5,351 471,351.4 471,351.9M353.7,361.7C352.6,362.7 352.9,366 354,366C354.5,366 356.5,365.2 358.5,364.3C360.9,363.1 361.6,362.4 360.8,361.8C359.2,360.9 354.6,360.7 353.7,361.7M428.2,367.3C425.8,369.7 425,371.5 425,374C425.1,377.1 425.2,377.3 426.2,375.5C427.7,372.9 429,371.3 431.8,368.5C433.1,367.2 433.9,365.6 433.5,365.1C432.5,363.4 431.6,363.8 428.2,367.3M454.2,370.5C452.5,371.9 450.4,373 449.4,373C447.6,373 445.3,373.6 436.4,376.4C433.5,377.3 429.8,378 428.1,378C425.6,378 424.7,378.6 423.8,380.7C423.1,382.3 421.5,384.5 420.2,385.8C417.9,388 417.9,388.2 419.5,390.1C421.3,392 424,392.7 424,391.2C424,390.8 424.4,389.9 424.9,389.1C425.6,388 426.2,388.1 428.3,389.4C429.9,390.5 433.3,391.1 437.9,391.3C441.8,391.4 445,391.8 445,392.1C445,393 442.3,394 439.8,394C438.6,394 437.2,394.7 436.5,395.6C435.4,397.1 435,397 431.4,394.6C427.5,392 425,391.3 425,392.9C425,394.3 429.6,398.7 432.9,400.5C436.1,402.1 436.2,402.1 436.7,400C437.2,398.3 437.9,397.9 440.9,398.2C442.9,398.4 444.3,398.9 444,399.5C443.7,400 443.1,400.4 442.7,400.2C442.3,400.1 441.7,400.7 441.4,401.5C441,402.3 439.9,403 438.9,403C436.4,403 436.5,404.6 438.9,406C440.3,406.7 441,406.6 441.3,405.7C441.6,404.8 442.5,404.9 445.3,406.2C448.4,407.7 449,407.7 450.1,406.4C450.8,405.6 451.9,405.1 452.6,405.4C453.2,405.6 454.7,404.8 455.9,403.6C458.4,401 458.5,400 456.5,400C455.5,400 455.9,399.2 457.5,397.5C460.4,394.7 460.6,393.2 458.5,392.4C456.2,391.5 456.6,387 459,387C460.5,387 461,387.7 461,389.5C461,390.9 461.5,392 462,392C462.6,392 463,390.6 463,389C463,387.3 463.5,385.1 464.2,384C465.9,381.3 464.8,380.7 461.4,382.5C459.8,383.3 458,384 457.5,384C455.7,384 457.1,376.3 459.1,374.4C460.1,373.5 461,371.6 461,370.3C461,367.2 458,367.3 454.2,370.5M437.9,382.9C438.8,383.5 440,383.4 441.1,382.7C442.5,381.8 443.2,381.8 444.2,382.8C446.2,384.8 441.4,389 437.2,389C434,389 428,386.3 428,384.9C428,384.3 432.8,382.7 436,382.1C436.3,382.1 437.1,382.4 437.9,382.9M451.2,390.2C450.6,390.8 449.7,391 449.3,390.6C448.9,390.2 449.2,389.5 450,389C451.9,387.8 452.7,388.7 451.2,390.2M453.1,396.7C452.3,398.2 452.1,398.2 452,396.9C452,395.2 453,393.7 453.8,394.4C454,394.7 453.7,395.7 453.1,396.7M342.7,370.7C341.1,372.3 342.3,375 345.7,377.8C349,380.4 349.3,381 348.1,382.4C346.9,383.9 347.1,384.5 349.5,387C352.2,389.9 357.6,392.7 358.6,391.8C359.5,390.9 356.9,385.7 355,384.3C353.9,383.5 353,382.2 353,381.4C353,379.6 360.7,380.5 363.2,382.8C364.2,383.6 365.6,384 366.4,383.7C367.3,383.3 368.2,383.5 368.5,384C369.5,385.6 366.6,389 364.2,389C362.7,389 362,389.5 362.3,390.2C362.5,391.1 364.8,391.5 368.8,391.5C373.7,391.5 375.2,391.1 376.3,389.6C377.6,387.8 377.7,387.9 377.2,390.8C377,392.5 376.2,394.5 375.4,395.1C374.6,395.7 374,396.9 374,397.7C374,399.8 377.2,398.9 378.5,396.5C379.1,395.4 380.4,393.2 381.4,391.7C383,389.3 383.1,388.6 382,386.5C381,384.6 381,383.8 382.3,382C383.7,380 383.7,379.5 382.2,376.4C380.1,372.2 378.5,372.6 378.5,377.3C378.5,379.3 378.1,381 377.7,381.1C377.3,381.1 374.8,380.1 372.3,378.9C368,376.8 360.6,374.6 353.8,373.3C352.2,373 351,372.1 351,371.3C351,370.1 350.7,370 349.7,370.8C348.9,371.5 347.9,371.5 347,371C345.2,369.9 343.6,369.7 342.7,370.7M389,377.9C389,378.5 389.5,379.2 390.1,379.5C390.6,379.9 391.5,381.3 392,382.6C392.5,383.9 393.4,385 394,385C395.5,385 395.2,381.7 393.4,379.2C391.9,377 389,376.2 389,377.9M406.7,383.7C406.4,384.4 406.5,391.9 406.9,394.3C406.9,394.8 407.6,395 408.3,394.8C410.1,394.1 410.3,383 408.5,383C407.7,383 406.9,383.3 406.7,383.7M343,388C343,388.6 342.2,389 341.3,388.8C340.1,388.6 339.4,389.2 339.2,390.7C338.9,392.5 339.4,393 340.9,393C342.1,393 343,392.4 343,391.5C343,390.7 343.5,390 344,390C345.5,390 345.2,392.6 343.5,394C341.2,395.9 342,399.4 344.8,399.8C346.6,400.1 347,400.8 347,403.5C347,406.8 349.1,408.7 351.2,407.4C352.8,406.4 356.9,409.1 356.7,411.1C356.6,412.1 356.8,412.9 357.3,412.9C360.4,413.2 361,412.8 361,410.5C361,409.1 360.6,408 360,408C359.5,408 359,407.4 359,406.6C359,405.5 359.9,405.3 362.5,405.7C365.1,406.1 366,405.9 366,404.9C366,402 364.2,400.7 361,401.2C358,401.6 357.9,401.5 358.6,399.1C359.9,394.1 359.7,393.7 355.7,393.4C353.1,393.2 351,392.2 348.9,390.1C345.9,387 343,386 343,388M363,396.9C363,398.2 365.6,400.1 366.3,399.3C367.7,398 366.9,396 365,396C363.9,396 363,396.4 363,396.9M371.8,404.7C372.5,405 373.4,404.9 373.7,404.6C374.1,404.3 373.5,404 372.4,404.1C371.3,404.1 371,404.4 371.8,404.7M388.7,410.8C386.1,413.5 383,420.7 383,424C383,425.8 387,430 388.8,430C389.4,430 390.3,430.6 390.7,431.4C391.9,433.5 402.5,434 402.5,432C402.5,431.2 401.2,429.9 399.5,429.1C397.9,428.3 396.2,427.3 395.9,426.8C395.1,425.5 390.1,423 388.4,423C386.7,423 386.7,422.2 388.1,418.2C388.7,416.5 390,414.8 391.1,414.5C392.3,414.1 393,413 393,411.5C393,408 391.6,407.7 388.7,410.8" style="fill-rule:nonzero;"/>
        <path d="M353,410.5C353,411.3 353.5,412 354,412C354.6,412 355,411.3 355,410.5C355,409.7 354.6,409 354,409C353.5,409 353,409.7 353,410.5M415.5,412.7C415.9,414.8 416.4,417.6 416.7,419C417.1,421.2 416.6,421.7 413.6,422.8C411.4,423.6 409.4,425.3 408.5,427C405.5,432.9 407.4,435 411.6,430.5C412.9,429.1 414.8,428 415.8,428C417.1,428 418.5,426.4 420.1,423.6C421.4,421.1 422.7,419.2 423.1,419.3C423.8,419.5 424,419 424,417C424,415.4 417.9,409 416.3,409C415,409 414.9,409.7 415.5,412.7M447.7,410.7C446.5,411.8 446.9,413 448.4,413C449.2,413 450,412.3 450.4,411.5C450.9,410 449,409.4 447.7,410.7M364,412C362.8,412.8 362.9,413 364.8,413C366,413 367,412.5 367,412C367,410.7 365.9,410.7 364,412M291.5,426.3C291.1,427.3 291,428.4 291.4,428.7C292.4,429.7 293.2,428.3 292.7,426.3C292.3,424.6 292.3,424.6 291.5,426.3M431.7,435.1C430.8,435.6 429.5,435.8 428.9,435.5C428.4,435.1 426.7,435.6 425.3,436.6C422.4,438.5 411.4,439.4 410.4,437.8C410.1,437.3 409.2,437.4 408.3,438.2C406.5,439.7 395.8,440.2 394.9,438.9C394.6,438.3 393.1,438.6 391.4,439.5C387.2,441.7 381.1,441.4 378.5,439C376.5,437.1 376.2,437.1 375,438.6C373.1,440.8 374.8,443.3 379.1,444.3C383.5,445.3 403.2,445.8 404.5,444.9C405.1,444.5 410.2,443.7 416,443.1C422.6,442.4 427.3,441.3 429,440.2C430.4,439.3 432.4,438.5 433.5,438.5C434.8,438.5 435.5,437.8 435.5,436.6C435.5,434.3 434.1,433.7 431.7,435.1M368,437.4C368,439.5 370.1,440.5 371,438.9C371.5,438.2 371.6,437.2 371.4,436.8C370.5,435.4 368,435.9 368,437.4M287.1,440.7C285.8,445.3 285.7,452 286.9,453.9C287.4,454.6 287.9,454.8 288.2,454.4C288.8,453.1 289.2,437 288.6,437C288.3,437 287.6,438.7 287.1,440.7M358,437.9C358,438.4 358.7,439 359.5,439.4C360.4,439.7 361,439.4 361,438.5C361,437.7 360.3,437 359.5,437C358.7,437 358,437.4 358,437.9M491.2,441.4C491.4,442.9 492,444 492.5,444C494,444 493.7,439.7 492.2,439.2C491.2,438.9 490.9,439.6 491.2,441.4M310.4,450.4C309.8,452.1 310.6,454 312.1,454C313.3,454 313.3,450.3 312,449.5C311.4,449.2 310.7,449.6 310.4,450.4M486.7,454.7C486.3,455 486,455.8 486,456.4C486,457 486.5,456.9 487.2,456.2C487.8,455.6 488.1,454.8 487.9,454.5C487.6,454.2 487,454.3 486.7,454.7M396,455.7C396,456.8 400.6,459.9 402.3,460C405.1,460 408,458.1 407.4,456.6C407.1,455.7 405.1,455.2 401.4,455.2C398.4,455.2 396,455.4 396,455.7M498,459.5C497.4,460.3 497,461.5 497.2,462.1C497.4,462.7 498.4,462.1 499.3,460.6C501.1,457.9 500.1,456.9 498,459.5M481.8,464.3C480.2,465.6 479,467.2 479,468C479,468.7 478.2,470.2 477.3,471.2C476.1,472.5 476,473.4 476.7,474.1C477.8,475.2 478.4,474.5 483.5,466.7C487.1,461.2 486.5,460.4 481.8,464.3M490,473.5C488.7,474.9 488,476.3 488.5,476.7C488.9,477.2 489.5,476.9 489.7,476.2C490,475.5 490.9,474.3 491.7,473.4C492.5,472.6 493,471.7 492.8,471.5C492.5,471.2 491.3,472.1 490,473.5M329.5,479C329.1,479.6 328,479.8 326.9,479.5C325.6,479.1 325,479.3 325,480.3C325,481.8 328.2,483 333.8,483.5C337.5,483.9 337.8,482.8 335,480C332.8,477.8 330.5,477.4 329.5,479M469,480.2C466.8,482.2 466.8,482.5 468.4,482.8C470.1,483.2 474,480.5 474,478.8C474,477.3 471.4,478 469,480.2M322,483.9C322,485.5 327,490.9 329,491.5C330.3,491.9 331,493 331,494.6C331,495.9 331.4,497 331.8,497C333.5,497 333.9,495.7 332.8,493.6C332.1,492.5 331.7,490.7 331.8,489.8C332,488.6 331.6,488.3 330.2,488.7C328.9,489 327.5,488.1 325.7,486.1C323.1,482.9 322,482.3 322,483.9M338.7,489.7C338.3,490 338,491.7 338,493.5C338,495.2 337.5,497.1 336.8,497.8C336,498.6 336,499.3 337,500.5C338.6,502.4 340,502.4 340,500.5C340,499.7 340.5,499 341,499C341.6,499 342,498.3 342,497.5C342,496.7 341.3,496 340.5,496C338.5,496 338.6,492.4 340.6,491.6C341.4,491.3 341.8,490.6 341.5,490C340.8,488.8 339.6,488.7 338.7,489.7M313,492.4C313,492.6 313.8,493.4 314.8,494.1C316.3,495.4 316.4,495.3 315.1,493.7C313.8,492.1 313,491.6 313,492.4M344,504L340.5,504.5L344.1,506.7C348.5,509.5 349,509.5 349,507.2C349,504.3 347.6,503.4 344,504M345.1,516.2C348.7,519.5 353,522.2 353,521.1C353,519.9 345.6,514 344,514C343.3,514 343.8,515 345.1,516.2M368,523.9C368,524.7 372.1,526.2 372.7,525.6C372.9,525.5 371.9,524.8 370.5,524.2C369.1,523.6 368,523.4 368,523.9M288,506C288,506.5 288.7,507 289.6,507C290.4,507 290.8,506.5 290.5,506C290.2,505.4 289.5,505 288.9,505C288.4,505 288,505.4 288,506" style="fill-rule:nonzero;"/>
    </g>
</svg>
