<svg width="102" height="93" viewBox="0 0 102 93" fill="none" xmlns="http://www.w3.org/2000/svg">
<path d="M93.9209 39.0002C92.7221 38.9576 92.7145 36.8005 94.7214 34.76C91.3712 37.2486 87.4885 37.7445 83.9995 36.7571C86.6247 37.5 86.7701 40.2672 84.5686 41.5C87.3992 39.9149 90.4827 39.0135 93.9209 39.0002Z" fill="#1C5964"/>
<path d="M76.9984 59C73.0058 59.4397 71.2725 59.1946 70.4984 56.5C68.7566 57.4202 67.0904 58.1567 65.4995 58.7267C68.4226 57.6793 71.3478 61.7182 70.1046 62.9769C71.514 61.759 73.7364 60.506 76.9984 59Z" fill="#1C5964"/>
<path d="M42.9995 52.0736C39.0946 45.5231 38.9624 36.6969 42.4984 32.0016C42.643 25.5601 42.455 20.7522 41.7971 16.5C41.6702 33.7973 38.909 40.7782 30.9957 49.461C32.8893 48.1908 38.713 49.1218 42.9995 52.0736Z" fill="#1C5964"/>
<path d="M48 85C45.3588 79.8821 46.537 78.825 52.7156 80.198C50.6657 79.3342 49.0968 76.66 47.6057 72C49.0944 80.3859 44 82.5 33.486 81.5C35.5132 82.1761 37.9149 82.8436 40.5 83.4591C42.8933 84.0289 45.4439 84.5541 48 85Z" fill="#1C5964"/>
<path d="M22.9995 44.5C28.4571 34.0089 31.5429 26.0427 34.3679 15.5L31.9337 8.5C33.4996 31.4946 23.158 31.5 24.9982 22.7784L20.5 44.0698C21.279 44.1718 22.1112 44.3146 22.9995 44.5Z" fill="#1C5964"/>
<path d="M34.3679 15.5C35.4118 11.6043 36.4202 7.35672 37.4995 2.5C34.5501 6.71637 32.7681 5.73428 29.4995 1.5L31.9337 8.5L34.3679 15.5Z" fill="#1C5964"/>
<path d="M74.9984 17.6862C71.8323 27.1847 77.1592 34.8214 83.9995 36.7571M42.4984 32.0016C72.9984 -8.49989 92.4984 43.0005 100.998 25.5016C99.7374 29.1161 97.9958 31.8032 95.9995 33.6868M42.4984 32.0016C38.9624 36.6969 39.0946 45.5231 42.9995 52.0736M42.4984 32.0016C42.643 25.5601 42.455 20.7522 41.7971 16.5M70.4984 56.5C71.2725 59.1946 73.0058 59.4397 76.9984 59C73.7364 60.506 71.514 61.759 70.1046 62.9769M70.4984 56.5C74.743 49.9698 79.2013 44.5057 84.5686 41.5M70.4984 56.5C68.7566 57.4202 67.0904 58.1567 65.4995 58.7267M93.9984 39C100.998 39 87.1691 48.5 85.7768 51.5C83.6425 56.0985 82.3206 60.9204 80.9984 67L68.4984 69C67.7156 66.613 67.9693 64.8734 69.9995 63.0691M93.9984 39C93.9725 39 93.9467 39.0001 93.9209 39.0002M93.9984 39C93.972 39.001 93.9462 39.0011 93.9209 39.0002M95.9995 33.6868C95.5838 34.079 95.1571 34.4364 94.7214 34.76M95.9995 33.6868C95.5055 34.0322 95.0811 34.3943 94.7214 34.76M83.9995 36.7571C86.6247 37.5 86.7701 40.2672 84.5686 41.5M83.9995 36.7571C87.4885 37.7445 91.3712 37.2486 94.7214 34.76M84.5686 41.5C87.3992 39.9149 90.4827 39.0135 93.9209 39.0002M93.9209 39.0002C92.7221 38.9576 92.7145 36.8005 94.7214 34.76M65.4995 58.7267C68.4226 57.6793 71.3478 61.7182 70.1046 62.9769M65.4995 58.7267C61.3131 60.2266 57.6484 60.574 54.5 60.0852M69.9995 63.0691C70.0374 63.0403 70.0724 63.0095 70.1046 62.9769M69.9995 63.0691C70.034 63.0384 70.069 63.0077 70.1046 62.9769M37.4995 2.5C36.4202 7.35672 35.4118 11.6043 34.3679 15.5M37.4995 2.5C39.6813 7.51223 41.0457 11.6437 41.7971 16.5M37.4995 2.5C34.5501 6.71637 32.7681 5.73428 29.4995 1.5M22.9995 44.5C28.4571 34.0089 31.5429 26.0427 34.3679 15.5M22.9995 44.5C16.5739 43.159 13.0778 44.0445 11.4995 46.5C7 53.5 0.749486 57.5 0.999457 59C1.49946 62 3.99946 66.5 5.99946 67C7.74841 67.4372 13.08 66 13.4995 66.5C16.5444 70.1297 19.2603 70.7933 25.9995 70M22.9995 44.5C22.1112 44.3146 21.279 44.1718 20.5 44.0698L24.9982 22.7784M34.3679 15.5L31.9337 8.5M29.4995 1.5L24.9995 22.7723M29.4995 1.5L31.9337 8.5M25.9995 70C31.4995 69.5 36 56 30.5 50M25.9995 70C25.9095 74.0782 26.75 78 28 79M30.5 50C30.6674 49.8195 30.8327 49.6399 30.9957 49.461M30.5 50C30.6051 49.7898 30.7733 49.6102 30.9957 49.461M42.9995 52.0736C38.713 49.1218 32.8893 48.1908 30.9957 49.461M42.9995 52.0736C44.7213 60.7881 46.1251 67.3729 47.6057 72M42.9995 52.0736C45.3996 56.0998 49.225 59.2662 54.5 60.0852M41.7971 16.5C41.6702 33.7973 38.909 40.7782 30.9957 49.461M28 79C28.9865 79.7892 30.9412 80.6513 33.486 81.5M28 79C22.8444 80.9323 18.5 84 19.5 86C20 87 25.5 87 31 86.5M33.486 81.5C44 82.5 49.0944 80.3859 47.6057 72M33.486 81.5C35.5132 82.1761 37.9149 82.8436 40.5 83.4591M47.6057 72C49.0968 76.66 50.6657 79.3342 52.7156 80.198M52.7156 80.198C46.537 78.825 45.3588 79.8821 48 85C45.4439 84.5541 42.8933 84.0289 40.5 83.4591M52.7156 80.198C53.1236 80.3699 53.5507 80.4701 54 80.5C53.55 80.3891 53.122 80.2883 52.7156 80.198ZM40.5 83.4591C37.0363 86.9912 35.5 90 36.5 92C37.5 93 50.9677 92.1882 52 91.5C53.5 90.5 67.5 74.8813 65.4995 73.8356C58.3517 70.0997 55.7934 67.198 54.5 60.0852M24.9995 22.7723C24.999 22.7743 24.9986 22.7763 24.9982 22.7784M24.9995 22.7723L24.9982 22.7784M31.9337 8.5C33.4996 31.4946 23.158 31.5 24.9982 22.7784" stroke="#1C5964"/>
<circle cx="17" cy="54" r="3" fill="#1C5964"/>
</svg>
